<svg xmlns="http://www.w3.org/2000/svg" xmlns:xlink="http://www.w3.org/1999/xlink" width="33.175" height="28.849" viewBox="0 0 33.175 28.849"><defs><style>.a{stroke:rgba(0,0,0,0);stroke-miterlimit:10;fill:url(#a);}</style><linearGradient id="a" y1="0.5" x2="1" y2="0.5" gradientUnits="objectBoundingBox"><stop offset="0" stop-color="#da1f02"/><stop offset="1" stop-color="#fb9608"/></linearGradient></defs><path class="a" d="M17.232,37.756C9.944,41.722,6.174,47.628,6.174,55.644c0,6.244,2.429,9.788,6.869,9.788,3.267,0,5.7-2.278,5.7-5.991a5.424,5.424,0,0,0-5.7-5.569,3.412,3.412,0,0,0-.921.084c.084-5.4,2.681-8.775,7.623-11.813Zm18.429,0C28.373,41.722,24.6,47.628,24.6,55.644c0,6.244,2.429,9.788,6.785,9.788,3.351,0,5.78-2.278,5.78-5.991a5.447,5.447,0,0,0-5.78-5.569,2.83,2.83,0,0,0-.838.084c.084-5.4,2.681-8.775,7.623-11.813Z" transform="translate(-5.674 -37.083)"/></svg>