<svg xmlns="http://www.w3.org/2000/svg" xmlns:xlink="http://www.w3.org/1999/xlink" width="133" height="131.402" viewBox="0 0 133 131.402"><defs><style>.a{stroke:rgba(0,0,0,0);stroke-miterlimit:10;fill:url(#a);}</style><linearGradient id="a" y1="0.5" x2="1" y2="0.5" gradientUnits="objectBoundingBox"><stop offset="0" stop-color="#da1f02"/><stop offset="1" stop-color="#fb9608"/></linearGradient></defs><g transform="translate(-22.566 -2894.24)"><path class="a" d="M66.356,130.248a5.4,5.4,0,0,1-2.768-.761,4.963,4.963,0,0,1-1.874-2.02,6.127,6.127,0,0,1-.639-2.943,5.547,5.547,0,0,1,.049-.6l8.821.147a3.446,3.446,0,0,0-1.221-2.341,4.08,4.08,0,0,0-2.662-.921,4.02,4.02,0,0,0-3.163,1.265l-1.067-1.3a4.857,4.857,0,0,1,1.859-1.291,6.908,6.908,0,0,1,5.507.352,5.054,5.054,0,0,1,2.025,2.025,5.7,5.7,0,0,1,.679,2.9,5.789,5.789,0,0,1-.757,2.86,5.049,5.049,0,0,1-1.979,1.955,5.477,5.477,0,0,1-2.7.666Zm-2.329-2.587a3.651,3.651,0,0,0,4.74.088,3.519,3.519,0,0,0,1.157-2.251l-6.976-.116A3.539,3.539,0,0,0,64.027,127.661Zm28.114,2.245a1.168,1.168,0,0,1-.686-.692,1.271,1.271,0,0,1,0-1.011,1.3,1.3,0,0,1,.745-.71,1.321,1.321,0,0,1,1.025-.014,1.233,1.233,0,0,1,.688.7,1.246,1.246,0,0,1-.016.993,1.3,1.3,0,0,1-.743.71,1.4,1.4,0,0,1-.545.113A1.218,1.218,0,0,1,92.142,129.906Zm-14.482-.964a4.216,4.216,0,0,1-2.115-1.315l1.259-1.264a3.339,3.339,0,0,0,1.488.883,3.62,3.62,0,0,0,1.726.025,3.815,3.815,0,0,0,1.775-.869,3.37,3.37,0,0,0,1.024-1.6,4.083,4.083,0,0,0,.052-2.068,4.188,4.188,0,0,0-.9-1.885,3.368,3.368,0,0,0-1.581-1.04,3.853,3.853,0,0,0-1.979-.06,3.649,3.649,0,0,0-1.562.739,3.341,3.341,0,0,0-1,1.414l-1.663-.611a4.343,4.343,0,0,1,1.392-2.084,5.661,5.661,0,0,1,2.452-1.15,6.032,6.032,0,0,1,3.046.082,5.215,5.215,0,0,1,2.412,1.519,5.988,5.988,0,0,1,1.2,5.623,5.2,5.2,0,0,1-1.583,2.367,6.07,6.07,0,0,1-2.75,1.326,6.382,6.382,0,0,1-1.337.146A5.254,5.254,0,0,1,77.659,128.942Zm-25.322-.485a9.226,9.226,0,0,1-2.055-.763,6.024,6.024,0,0,1-1.569-1.113l1.172-1.335a5.711,5.711,0,0,0,2.861,1.571,3.629,3.629,0,0,0,1.946.039,1.234,1.234,0,0,0,.893-.912,1.042,1.042,0,0,0-.169-.908,2.318,2.318,0,0,0-.781-.654c-.332-.178-.8-.4-1.411-.675a16.132,16.132,0,0,1-1.958-.966,3.152,3.152,0,0,1-1.143-1.171,2.459,2.459,0,0,1-.165-1.821,2.733,2.733,0,0,1,1.77-2,5.916,5.916,0,0,1,3.543-.062,9.112,9.112,0,0,1,2.412.948,5.6,5.6,0,0,1,1.665,1.335l-1.156,1.343a5.718,5.718,0,0,0-1.5-1.207,6.939,6.939,0,0,0-1.95-.781q-2.509-.6-2.853.842a.98.98,0,0,0,.161.848,2.25,2.25,0,0,0,.751.609c.318.169.774.381,1.378.637a14.922,14.922,0,0,1,1.978.96,3.3,3.3,0,0,1,1.18,1.215,2.536,2.536,0,0,1,.166,1.882,2.792,2.792,0,0,1-1.742,2.036,4.455,4.455,0,0,1-1.729.324A7.482,7.482,0,0,1,52.337,128.457Zm34.145-12.705,1.828-.735,4.034,10.153-1.828.735Zm8.041-3.863,1.717-1.054,9.722,6.846-1.751,1.072-7.724-5.529,1.28,9.484-1.647,1.009Zm-58.74,9.678a8.459,8.459,0,0,1-2.292-1.022,4.916,4.916,0,0,1-2.34-2.79,4.3,4.3,0,0,1,.735-3.452l3.483-5.6,1.583,1-.763,1.223A3.091,3.091,0,0,1,38,110.686a5.359,5.359,0,0,1,2.043.816,4.548,4.548,0,0,1,2.011,2.312,3.05,3.05,0,0,1-2.414,3.972,5.165,5.165,0,0,1-3.277-1.03l-2.643-1.665-.206.328a2.518,2.518,0,0,0-.409,2.055,3.127,3.127,0,0,0,1.484,1.738,5.739,5.739,0,0,0,1.768.737,4.756,4.756,0,0,0,1.773.107l-.085,1.7a4.844,4.844,0,0,1-.629.039A6.327,6.327,0,0,1,35.782,121.566Zm-.509-8.978-.8,1.292,2.57,1.622q2.123,1.336,3.012-.1a1.535,1.535,0,0,0,.149-1.439,2.906,2.906,0,0,0-1.246-1.347,3.635,3.635,0,0,0-1.919-.609h-.026A2.869,2.869,0,0,0,35.273,112.589Zm71.712,1.8c.089-.07.207-.163.349-.293a3.326,3.326,0,0,0,1.221-2.406,3.792,3.792,0,0,0-1.148-2.643l-3.635-4.036,1.46-1.333,7.3,8.106-1.4,1.271-1.227-1.358a3.373,3.373,0,0,1-.163,2.094,5.5,5.5,0,0,1-1.477,2.016Zm-83.755-1.8,1.187-1.146a3.771,3.771,0,0,1-2.051-.264,5.562,5.562,0,0,1-1.923-1.36,4.519,4.519,0,0,1-1.42-3.222,4.755,4.755,0,0,1,1.691-3.335L25.223,98.9l1.368,1.423-4.351,4.2a3.366,3.366,0,0,0-1.186,2.212,2.867,2.867,0,0,0,.928,2.135,3.394,3.394,0,0,0,2.428,1.18,3.63,3.63,0,0,0,2.566-1.2l4.036-3.9,1.362,1.428-7.833,7.579Zm91.295-6.525a5.987,5.987,0,0,1-2.753-1.18c-.121-.095-.271-.222-.452-.394l5.238-7.135A3.378,3.378,0,0,0,113.953,97a4.141,4.141,0,0,0-2.292,1.644,4.067,4.067,0,0,0-.8,3.328l-1.675.116a4.892,4.892,0,0,1,.035-2.267,6.991,6.991,0,0,1,3.48-4.306,5.035,5.035,0,0,1,2.817-.483,5.659,5.659,0,0,1,2.744,1.124,5.766,5.766,0,0,1,1.87,2.281,5.123,5.123,0,0,1,.435,2.754,5.613,5.613,0,0,1-1.1,2.693,5.448,5.448,0,0,1-2.22,1.825,4.977,4.977,0,0,1-1.976.414A5.366,5.366,0,0,1,114.525,106.063Zm-.972-2.218a3.524,3.524,0,0,0,2.472.437,3.391,3.391,0,0,0,2.109-1.4,3.443,3.443,0,0,0,.714-2.433A3.518,3.518,0,0,0,117.7,98.2Zm-97.7-3.673A5.007,5.007,0,0,1,13.2,99.4a5.773,5.773,0,0,1-1.983-2.154,5.262,5.262,0,0,1-.653-2.11,4.21,4.21,0,0,1,.346-2.078L5.668,95.97l-.949-1.729,13.319-7.412.913,1.657-1.509.844a4.226,4.226,0,0,1,2.008.791,5.186,5.186,0,0,1,1.484,1.724,5.693,5.693,0,0,1,.755,2.827,5.009,5.009,0,0,1-.761,2.68,5.794,5.794,0,0,1-2.2,2.033,5.768,5.768,0,0,1-2.823.788Zm-1.64-8.982A4.132,4.132,0,0,0,12.7,92.58a3.338,3.338,0,0,0-.543,1.809,4.009,4.009,0,0,0,1.816,3.3,3.4,3.4,0,0,0,1.811.5,4.386,4.386,0,0,0,3.5-1.946,3.494,3.494,0,0,0,.547-1.816,3.689,3.689,0,0,0-.486-1.888,3.648,3.648,0,0,0-1.323-1.4,3.347,3.347,0,0,0-1.785-.5H16.2A4.1,4.1,0,0,0,14.219,91.19Zm111.82,3.392a7.581,7.581,0,0,0,1.549-1.449,7.345,7.345,0,0,0,1.056-1.748,4.531,4.531,0,0,0,.425-2.672,1.961,1.961,0,0,0-1.18-1.451,1.551,1.551,0,0,0-1.294-.008,3.366,3.366,0,0,0-1.136.852,17.968,17.968,0,0,0-1.269,1.624,20.061,20.061,0,0,1-1.726,2.115,4.463,4.463,0,0,1-1.75,1.105,3.144,3.144,0,0,1-2.265-.18,3.675,3.675,0,0,1-1.658-1.378,4.167,4.167,0,0,1-.643-2.306,7.867,7.867,0,0,1,.688-3.062,10.025,10.025,0,0,1,1.673-2.709,6.375,6.375,0,0,1,2.119-1.686l1.182,1.323a6.173,6.173,0,0,0-1.917,1.484,7.686,7.686,0,0,0-1.447,2.265,4.813,4.813,0,0,0-.474,2.708,1.881,1.881,0,0,0,1.146,1.446,1.558,1.558,0,0,0,1.288.017,3.225,3.225,0,0,0,1.116-.826c.33-.371.761-.922,1.286-1.64a19.625,19.625,0,0,1,1.727-2.125,4.346,4.346,0,0,1,1.767-1.111,3.172,3.172,0,0,1,2.287.2,3.714,3.714,0,0,1,1.677,1.365,4.2,4.2,0,0,1,.649,2.276,7.435,7.435,0,0,1-.669,3.05,9.507,9.507,0,0,1-1.271,2.193,6.7,6.7,0,0,1-1.687,1.6ZM2.652,79.211A4.183,4.183,0,0,1,.932,77.593,7.249,7.249,0,0,1,0,74.907V71.614a6.441,6.441,0,0,1,.566-1.762l1.722.442a7.608,7.608,0,0,0-.594,2.041,7.307,7.307,0,0,0-.012,2.042,4.509,4.509,0,0,0,1,2.519,1.948,1.948,0,0,0,1.748.636,1.588,1.588,0,0,0,1.124-.661,3.543,3.543,0,0,0,.535-1.315,17.755,17.755,0,0,0,.258-2.048,20.917,20.917,0,0,1,.41-2.7,4.411,4.411,0,0,1,.94-1.852,3.1,3.1,0,0,1,2.03-1.007,3.634,3.634,0,0,1,2.13.32,4.116,4.116,0,0,1,1.726,1.651,7.688,7.688,0,0,1,.966,2.986,9.854,9.854,0,0,1-.055,3.188,6.513,6.513,0,0,1-.958,2.54L11.84,78.1a6.479,6.479,0,0,0,.9-2.263,7.941,7.941,0,0,0,.086-2.691,4.8,4.8,0,0,0-.973-2.569,1.851,1.851,0,0,0-1.721-.653,1.584,1.584,0,0,0-1.118.647,3.2,3.2,0,0,0-.533,1.287,20.155,20.155,0,0,0-.271,2.072,20.823,20.823,0,0,1-.4,2.712,4.341,4.341,0,0,1-.951,1.863,3.181,3.181,0,0,1-2.064,1.013,3.68,3.68,0,0,1-2.135-.311Zm123.67-5.724a5.842,5.842,0,0,1-2.877-.81,5.057,5.057,0,0,1-1.892-2.039,5.788,5.788,0,0,1-.6-2.872,5.059,5.059,0,0,1,.523-2.136,4.453,4.453,0,0,1,1.368-1.615l-5.613-.193.065-1.979,14.7.5v1.9l-1.649-.059a4.161,4.161,0,0,1,1.306,1.718A4.819,4.819,0,0,1,132,67.2v1.523a5.561,5.561,0,0,1-.749,2.241,5,5,0,0,1-2.016,1.9,5.645,5.645,0,0,1-2.662.619C126.491,73.491,126.4,73.491,126.322,73.487Zm-1.7-8.955a3.386,3.386,0,0,0-1.4,1.271,3.911,3.911,0,0,0-.128,3.765,3.539,3.539,0,0,0,1.308,1.366,4.051,4.051,0,0,0,1.983.555,4,4,0,0,0,2.016-.419,3.447,3.447,0,0,0,1.39-1.272,3.785,3.785,0,0,0,.533-1.869,3.664,3.664,0,0,0-.417-1.886,3.5,3.5,0,0,0-1.3-1.362,3.943,3.943,0,0,0-1.972-.557c-.06,0-.124,0-.184,0A3.985,3.985,0,0,0,124.625,64.532ZM8.146,65a5.622,5.622,0,0,1-2.776-1.015,5.144,5.144,0,0,1-1.762-2.216A5.977,5.977,0,0,1,3.2,58.783a5.908,5.908,0,0,1,.987-2.839,5.079,5.079,0,0,1,2.155-1.812,5.523,5.523,0,0,1,2.921-.446,5.593,5.593,0,0,1,2.774,1.007,5.275,5.275,0,0,1,1.771,2.21,6.309,6.309,0,0,1-.572,5.825,5.252,5.252,0,0,1-2.165,1.826,5.521,5.521,0,0,1-2.276.476C8.58,65.029,8.365,65.02,8.146,65Zm-1.117-9.05A3.3,3.3,0,0,0,5.562,57.12a4.014,4.014,0,0,0-.371,3.755A3.434,3.434,0,0,0,6.4,62.326,4.056,4.056,0,0,0,8.34,63a4.009,4.009,0,0,0,2.043-.283,3.472,3.472,0,0,0,1.471-1.178,3.684,3.684,0,0,0,.668-1.829,3.775,3.775,0,0,0-.293-1.931,3.445,3.445,0,0,0-1.223-1.437,4.127,4.127,0,0,0-1.94-.669,4.344,4.344,0,0,0-.5-.027A3.927,3.927,0,0,0,7.028,55.948Zm113.458.346,1.6-.371a3.927,3.927,0,0,1-1.616-1.242,5.049,5.049,0,0,1-.932-1.98,4.837,4.837,0,0,1,.409-3.631,4.682,4.682,0,0,1,3.171-2.02l6.1-1.409.438,1.937-5.879,1.353a3.364,3.364,0,0,0-2.16,1.281,2.875,2.875,0,0,0-.3,2.314,3.276,3.276,0,0,0,1.471,2.2,3.688,3.688,0,0,0,2.8.281l5.479-1.263.438,1.935-10.592,2.438ZM1.026,47.069l.544-1.9L16.2,49.394l-.545,1.9Zm12.121-3.594L7.569,40.629l.891-1.766L13.837,41.6a3.365,3.365,0,0,0,2.478.407,2.842,2.842,0,0,0,1.7-1.583,3.3,3.3,0,0,0,.271-2.64,3.72,3.72,0,0,0-1.972-2.021L11.3,33.213l.895-1.77,9.7,4.94-.849,1.677-1.461-.745a4,4,0,0,1,.454,2,4.983,4.983,0,0,1-.549,2.117,4.728,4.728,0,0,1-2.622,2.524,3.52,3.52,0,0,1-1.2.207A5.655,5.655,0,0,1,13.147,43.476ZM114.31,38.633l1.952-6.242-2.988-.722L110.8,33.331,109.7,31.679l12.667-8.485,1.093,1.647-8.125,5.444,7.795,1.946,1.315,1.99L118.173,32.9l-2.521,7.762ZM21.9,30.918,17.262,27.14,16.1,28.579l-1.262-1.024L16,26.113l-1.849-1.506,1.237-1.544,1.85,1.509L19.2,22.134l1.255,1.024L18.5,25.6l4.578,3.721a1.876,1.876,0,0,0,1.329.515,1.65,1.65,0,0,0,1.16-.687,2.4,2.4,0,0,0,.568-1.531l1.488.415a3.086,3.086,0,0,1-.233,1.2,4.583,4.583,0,0,1-.675,1.148A3.5,3.5,0,0,1,24.431,31.8a2.468,2.468,0,0,1-.313.018A3.541,3.541,0,0,1,21.9,30.918Zm85.128-2.975a5.649,5.649,0,0,1-2.331-1.376A6.028,6.028,0,0,1,103.032,24a5.294,5.294,0,0,1-.134-2.855,5.947,5.947,0,0,1,3.924-4.193,5.134,5.134,0,0,1,2.833-.039,6.158,6.158,0,0,1,2.646,1.527,5.75,5.75,0,0,1,1.514,2.255,4.289,4.289,0,0,1,.126,2.5l-1.752-.322a3.4,3.4,0,0,0-.13-1.734,3.6,3.6,0,0,0-.957-1.446,3.8,3.8,0,0,0-1.717-.972,3.292,3.292,0,0,0-1.893.064,4.051,4.051,0,0,0-1.721,1.131,4.208,4.208,0,0,0-1.038,1.811,3.424,3.424,0,0,0,.053,1.9,3.983,3.983,0,0,0,1.074,1.671,3.676,3.676,0,0,0,1.492.873,3.348,3.348,0,0,0,1.726.021l.448,1.721a4.362,4.362,0,0,1-1.3.2A4.6,4.6,0,0,1,107.028,27.943ZM22.743,18.513l1.441-1.351L31.6,25.153,30.161,26.5ZM32.977,20.36a5.626,5.626,0,0,1-2.158-2.031,5.635,5.635,0,0,1-.938-2.811,5.179,5.179,0,0,1,.636-2.771,5.975,5.975,0,0,1,2.066-2.179,5.866,5.866,0,0,1,2.825-.982,5.122,5.122,0,0,1,2.758.575,5.624,5.624,0,0,1,2.157,2.02A5.731,5.731,0,0,1,41.258,15a5.273,5.273,0,0,1-.619,2.769,6.238,6.238,0,0,1-4.892,3.167q-.18.012-.36.012A5.228,5.228,0,0,1,32.977,20.36Zm2.371-8.955a3.669,3.669,0,0,0-1.832.621,3.731,3.731,0,0,0-1.327,1.418,3.465,3.465,0,0,0-.376,1.854,4.137,4.137,0,0,0,.679,1.956,4.045,4.045,0,0,0,1.488,1.428,3.412,3.412,0,0,0,1.832.427,3.882,3.882,0,0,0,3.158-2.041,3.45,3.45,0,0,0,.363-1.853,4.22,4.22,0,0,0-.683-1.95,4.165,4.165,0,0,0-1.479-1.433A3.311,3.311,0,0,0,35.54,11.4C35.476,11.4,35.411,11.4,35.348,11.405Zm60.97,8.344,6.019-9.106,1.638,1.095-6.017,9.106ZM21.084,16.682a1.206,1.206,0,0,1-.891-.4,1.293,1.293,0,0,1-.348-.933,1.314,1.314,0,0,1,.438-.932,1.348,1.348,0,0,1,.941-.392,1.185,1.185,0,0,1,.887.4,1.28,1.28,0,0,1,.361.949,1.411,1.411,0,0,1-1.354,1.313ZM42.457,5.228l1.789-.6L44.76,6.2a3.915,3.915,0,0,1,1.126-1.742A5.714,5.714,0,0,1,47.938,3.3a4.491,4.491,0,0,1,3.5.112A4.747,4.747,0,0,1,53.7,6.39l1.954,5.98-1.872.617L51.9,7.228a3.341,3.341,0,0,0-1.463-2.035,2.848,2.848,0,0,0-2.318-.083,3.4,3.4,0,0,0-2.1,1.688,3.678,3.678,0,0,0-.039,2.845l1.748,5.348-1.872.625Zm40.605,8.124L88.532,0l5.179,2.146A6.635,6.635,0,0,1,97.264,5.07,4.583,4.583,0,0,1,97.342,9.1a4.53,4.53,0,0,1-2.878,2.8,6.649,6.649,0,0,1-4.567-.44l-3.283-1.362-1.655,4.044ZM87.3,8.433,90.52,9.768a4.608,4.608,0,0,0,3.067.369,2.9,2.9,0,0,0,1.857-1.826,2.928,2.928,0,0,0-.039-2.617,4.629,4.629,0,0,0-2.43-1.913L89.755,2.445Zm17.019,1a1.3,1.3,0,0,1-.59-.839,1.206,1.206,0,0,1,.185-.968,1.221,1.221,0,0,1,.816-.552,1.294,1.294,0,0,1,1.007.212,1.339,1.339,0,0,1,.594.832,1.2,1.2,0,0,1-.177.961,1.259,1.259,0,0,1-.834.566,1.288,1.288,0,0,1-.258.029A1.306,1.306,0,0,1,104.315,9.435ZM67.576,6.229a2.13,2.13,0,1,1,.033,0Z" transform="translate(23.066 2894.895)"/></g></svg>