<svg viewBox="0 0 200 190" xmlns="http://www.w3.org/2000/svg" xmlns:xlink="http://www.w3.org/1999/xlink"><clipPath id="a"><path d="m0 0h200v190h-200z"/></clipPath><pattern id="b" height="5.67" patternTransform="matrix(.9 0 0 .9 -26.54 12.75)" patternUnits="userSpaceOnUse" viewBox="0 0 5.67 5.67" width="5.67"><path d="m0 0h5.67v5.67h-5.67z" fill="none"/><circle cx=".99" cy=".99" fill="#fff" r=".99"/></pattern><pattern id="c" height="39.13" patternTransform="matrix(0 -.9 .9 0 -332.74 53.11)" patternUnits="userSpaceOnUse" viewBox="0 0 39.13 39.13" width="39.13"><path d="m0 0h39.13v39.13h-39.13z" fill="none"/><path d="m0 0h39.13" fill="none" stroke="#fff" stroke-miterlimit="10" stroke-width="2"/><path d="m0 6.52h39.13" fill="none" stroke="#fff" stroke-miterlimit="10" stroke-width="2"/><path d="m0 13.04h39.13" fill="none" stroke="#fff" stroke-miterlimit="10" stroke-width="2"/><path d="m0 19.57h39.13" fill="none" stroke="#fff" stroke-miterlimit="10" stroke-width="2"/><path d="m0 26.09h39.13" fill="none" stroke="#fff" stroke-miterlimit="10" stroke-width="2"/><path d="m0 32.61h39.13" fill="none" stroke="#fff" stroke-miterlimit="10" stroke-width="2"/><path d="m39.13 39.13h-39.13" fill="none" stroke="#fff" stroke-miterlimit="10" stroke-width="2"/></pattern><g clip-path="url(#a)"><path d="m228.5 99.29c0-11.53-3.25-22.07-7.41-32.1-4.31-10.39-11.31-18.42-19.15-26.26s-15.94-14.64-26.33-18.93c-10-4.16-20.49-7.84-32-7.84s-22 3.57-32.07 7.73c-10.4 4.31-18.82 10.87-26.66 18.7s-17.16 15.1-21.47 25.49c-4.16 10-4.51 21.68-4.51 33.21s3.95 21.71 8.1 31.71c4.31 10.4 7.17 22 15 29.87s18.48 13.07 28.88 17.38c10 4.16 21.18 8.12 32.71 8.12s21.64-6.48 31.66-10.63c10.4-4.31 20.8-8.33 28.63-16.16a86.58 86.58 0 0 0 24.62-60.3z" fill="url(#b)"/><path d="m25.09 132.33a41.15 41.15 0 0 0 -8.9 13.39 41.69 41.69 0 0 0 -3.51 15.76c0 5.36 2.33 10.35 4.41 15.38 2 4.86 3.41 10.46 7.35 14.4a43.39 43.39 0 0 0 13.56 9.37c5 2.08 10.86 2.5 16.22 2.5s10.64-1.72 15.68-3.81a41.26 41.26 0 0 0 22.1-22.19c2.08-5 4.47-10.29 4.47-15.65s-1.8-10.86-3.88-15.9c-2-4.85-6.18-8.4-10.13-12.35s-7.36-8.42-12.22-10.43a43.07 43.07 0 0 0 -16-3.54c-5.36 0-10.4 2.87-15.44 4.95-4.86 2.01-9.8 4.18-13.71 8.12z" fill="url(#c)"/></g></svg>