<svg viewBox="0 0 300 210" xmlns="http://www.w3.org/2000/svg" xmlns:xlink="http://www.w3.org/1999/xlink"><clipPath id="a"><path d="m0 0h300v210h-300z" transform="matrix(-1 0 0 -1 300 210)"/></clipPath><pattern id="b" height="5.67" patternTransform="matrix(.9 0 0 .9 2.27 -8.31)" patternUnits="userSpaceOnUse" viewBox="0 0 5.67 5.67" width="5.67"><path d="m0 0h5.67v5.67h-5.67z" fill="none"/><circle cx=".99" cy=".99" fill="#ffe700" r=".99"/></pattern><pattern id="c" height="39.13" patternTransform="matrix(.9 0 0 .9 -153.34 -41)" patternUnits="userSpaceOnUse" viewBox="0 0 39.13 39.13" width="39.13"><path d="m0 0h39.13v39.13h-39.13z" fill="none"/><path d="m0 0h39.13" fill="none" stroke="#45403f" stroke-miterlimit="10" stroke-width="2"/><path d="m0 6.52h39.13" fill="none" stroke="#45403f" stroke-miterlimit="10" stroke-width="2"/><path d="m0 13.04h39.13" fill="none" stroke="#45403f" stroke-miterlimit="10" stroke-width="2"/><path d="m0 19.57h39.13" fill="none" stroke="#45403f" stroke-miterlimit="10" stroke-width="2"/><path d="m0 26.09h39.13" fill="none" stroke="#45403f" stroke-miterlimit="10" stroke-width="2"/><path d="m0 32.61h39.13" fill="none" stroke="#45403f" stroke-miterlimit="10" stroke-width="2"/><path d="m39.13 39.13h-39.13" fill="none" stroke="#45403f" stroke-miterlimit="10" stroke-width="2"/></pattern><g clip-path="url(#a)"><path d="m66 83.9c0 8.75 2.47 16.76 5.62 24.38 3.28 7.89 8.59 14 14.54 19.93s12.11 11.13 20 14.4c7.61 3.16 15.56 5.95 24.32 5.95s16.74-2.71 24.35-5.86c7.9-3.28 14.3-8.26 20.24-14.21s13-11.48 16.3-19.37c3.15-7.62 3.42-16.47 3.42-25.22s-3-16.48-6.15-24.09c-3.28-7.89-5.45-16.73-11.4-22.68s-14-9.92-21.92-13.2c-7.62-3.15-16.08-6.16-24.84-6.16s-16.48 4.91-24.07 8.07c-7.89 3.27-15.79 6.32-21.74 12.27a65.83 65.83 0 0 0 -18.67 45.79z" fill="url(#b)"/><path d="m41.72 41.56a75 75 0 0 0 -28.61 5.76c-9.11 3.77-16.51 10.27-23.36 17.11s-14.75 13.69-18.52 22.77c-3.63 8.77-4.88 19.13-4.88 29.2a76.26 76.26 0 0 0 5.58 28.91c3.77 9.08 11.85 15.34 18.69 22.19s13.93 12.94 23 16.71c8.77 3.63 18 7 28.09 7s19.26-3.55 28-7.18a72.82 72.82 0 0 0 24.05-15.57c6.85-6.85 13.31-14.35 17.07-23.44 3.64-8.76 6.84-18.56 6.84-28.64s-5.2-19.05-8.84-27.81a70.69 70.69 0 0 0 -16-23.37c-6.84-6.85-13.11-15-22.19-18.81-8.64-3.61-18.84-4.83-28.92-4.83z" fill="#ffe700"/><path d="m162.84 128.13c-2.41 5.12-3.16 10.49-3.4 15.81-.25 5.52 1.19 10.55 3 15.66s4 9.83 7.75 13.92c3.59 3.93 7.48 7.75 12.6 10.15s10.54 3 15.87 3.25a40.22 40.22 0 0 0 15.74-2.76c5.11-1.85 10.77-3.14 14.85-6.87s6.52-8.69 8.93-13.82 2.76-10.46 3-15.79c.25-5.51 1.4-11.28-.45-16.39s-5.49-9.67-9.21-13.75-7.72-8-12.85-10.42-11-1.63-16.29-1.87c-5.51-.25-11-.64-16.09 1.21a42.45 42.45 0 0 0 -23.5 21.67z" fill="url(#c)"/><path d="m236.73 15.33a15.55 15.55 0 0 0 -3 5.17 15.35 15.35 0 0 0 -1.27 5.79 15.17 15.17 0 0 0 1.54 5.65c.73 1.78 1.34 3.77 2.78 5.22s3.51 1.89 5.28 2.63 3.64 1.64 5.6 1.64a15 15 0 0 0 5.65-1.5 14.65 14.65 0 0 0 4.85-3.14c1.45-1.44 3-2.83 3.73-4.61a15.21 15.21 0 0 0 .72-5.89 15.24 15.24 0 0 0 -.83-5.85 15.41 15.41 0 0 0 -3.45-4.82 15.09 15.09 0 0 0 -4.88-3.31 14.75 14.75 0 0 0 -5.79-.78c-2 0-4.1-.34-5.94.42a16.1 16.1 0 0 0 -4.99 3.38z" fill="#ffe700"/></g></svg>