<svg viewBox="0 0 375.04 74.59" xmlns="http://www.w3.org/2000/svg" xmlns:xlink="http://www.w3.org/1999/xlink"><clipPath id="a"><path d="m0 0h81v74.59h-81z" transform="matrix(-1 0 0 -1 81 74.59)"/></clipPath><pattern id="b" height="39.13" patternTransform="translate(-291.49 -8.89)" patternUnits="userSpaceOnUse" viewBox="0 0 39.13 39.13" width="39.13"><path d="m0 0h39.13v39.13h-39.13z" fill="none"/><path d="m0 0h39.13" fill="none" stroke="#ffe700" stroke-miterlimit="10" stroke-width="2"/><path d="m0 6.52h39.13" fill="none" stroke="#ffe700" stroke-miterlimit="10" stroke-width="2"/><path d="m0 13.04h39.13" fill="none" stroke="#ffe700" stroke-miterlimit="10" stroke-width="2"/><path d="m0 19.57h39.13" fill="none" stroke="#ffe700" stroke-miterlimit="10" stroke-width="2"/><path d="m0 26.09h39.13" fill="none" stroke="#ffe700" stroke-miterlimit="10" stroke-width="2"/><path d="m0 32.61h39.13" fill="none" stroke="#ffe700" stroke-miterlimit="10" stroke-width="2"/><path d="m39.13 39.13h-39.13" fill="none" stroke="#ffe700" stroke-miterlimit="10" stroke-width="2"/></pattern><pattern id="c" height="5.67" patternTransform="matrix(0 -.9 .9 0 14.37 -29.49)" patternUnits="userSpaceOnUse" viewBox="0 0 5.67 5.67" width="5.67"><path d="m0 0h5.67v5.67h-5.67z" fill="none"/><circle cx=".99" cy=".99" fill="#45403f" r=".99"/></pattern><pattern id="d" height="5.67" patternTransform="matrix(.9 0 0 .9 -5.03 -9.14)" patternUnits="userSpaceOnUse" viewBox="0 0 5.67 5.67" width="5.67"><path d="m0 0h5.67v5.67h-5.67z" fill="none"/><circle cx=".99" cy=".99" fill="#ffe700" r=".99"/></pattern><g clip-path="url(#a)"><path d="m65.14 28a4.11 4.11 0 0 0 -.38-1.64 5.19 5.19 0 0 0 -2.32-2.31 3.58 3.58 0 0 0 -3.27 0 4.2 4.2 0 0 0 -1.36 1 4.41 4.41 0 0 0 -1.1 1.3 4.52 4.52 0 0 0 -.23 1.7 4 4 0 0 0 .42 1.62 4.43 4.43 0 0 0 .76 1.52 4.53 4.53 0 0 0 1.48.89 4.47 4.47 0 0 0 1.67.42 4.4 4.4 0 0 0 1.61-.55 3.5 3.5 0 0 0 2.39-2.24 4.17 4.17 0 0 0 .33-1.71z" fill="#ffe700"/><path d="m74.3 58.4a12.08 12.08 0 0 0 -1.07-4.64 11.75 11.75 0 0 0 -2.76-3.76 11.88 11.88 0 0 0 -3.81-2.74 12 12 0 0 0 -4.66-1.16 12 12 0 0 0 -4.63 1.11 11.89 11.89 0 0 0 -3.86 2.71c-1.13 1.13-2.47 2.18-3.1 3.68a12.67 12.67 0 0 0 -.65 4.8 11.88 11.88 0 0 0 1.24 4.6c.63 1.5 1 3.18 2.17 4.31a12.72 12.72 0 0 0 4.17 2.52 12.58 12.58 0 0 0 4.66 1.17c1.67 0 3.13-.94 4.58-1.54a12.23 12.23 0 0 0 4.14-2.33 12.4 12.4 0 0 0 2.63-4 12.23 12.23 0 0 0 .95-4.73z" fill="url(#b)"/><path d="m38.28 48.85c2.46-2.46 3.89-5.77 5.15-8.8a26.23 26.23 0 0 0 2.17-9.85c0-3.34-1.42-6.5-2.72-9.63s-2.28-6.42-4.74-8.88-6-3.23-9-4.48-6.14-2.79-9.51-2.79-6.48 1.26-9.63 2.58a24.68 24.68 0 0 0 -8.27 5.33c-2.45 2.46-5.1 4.83-6.35 7.85s-1.22 6.7-1.22 10 .13 6.82 1.42 10a26 26 0 0 0 5.88 8.2 25.65 25.65 0 0 0 8.31 5.62c3.14 1.3 6.52 1.33 9.86 1.33s7 .57 10.11-.73a27 27 0 0 0 8.54-5.75z" fill="url(#c)"/></g><path d="m312 14.9a13.21 13.21 0 0 0 1.15 5.1 12.88 12.88 0 0 0 3.05 4.19 13.05 13.05 0 0 0 4.21 3 13.34 13.34 0 0 0 5.11 1.25 14.07 14.07 0 0 0 9.37-4.22c1.25-1.25 2.74-2.42 3.43-4.08a14 14 0 0 0 .72-5.3 13 13 0 0 0 -1.3-5.06c-.68-1.66-1.14-3.52-2.39-4.77a13.91 13.91 0 0 0 -4.61-2.77 13.75 13.75 0 0 0 -5.22-1.24c-1.84 0-3.46 1-5.06 1.7a13.45 13.45 0 0 0 -4.57 2.58 13.88 13.88 0 0 0 -3.89 9.62z" fill="url(#d)"/></svg>