<svg viewBox="0 0 100 140" xmlns="http://www.w3.org/2000/svg" xmlns:xlink="http://www.w3.org/1999/xlink"><clipPath id="a"><path d="m0 0h100v140h-100z"/></clipPath><pattern id="b" height="39.13" patternTransform="matrix(.9 0 0 .9 -306.18 74.34)" patternUnits="userSpaceOnUse" viewBox="0 0 39.13 39.13" width="39.13"><path d="m0 0h39.13v39.13h-39.13z" fill="none"/><path d="m0 0h39.13" fill="none" stroke="#fff" stroke-miterlimit="10" stroke-width="2"/><path d="m0 6.52h39.13" fill="none" stroke="#fff" stroke-miterlimit="10" stroke-width="2"/><path d="m0 13.04h39.13" fill="none" stroke="#fff" stroke-miterlimit="10" stroke-width="2"/><path d="m0 19.57h39.13" fill="none" stroke="#fff" stroke-miterlimit="10" stroke-width="2"/><path d="m0 26.09h39.13" fill="none" stroke="#fff" stroke-miterlimit="10" stroke-width="2"/><path d="m0 32.61h39.13" fill="none" stroke="#fff" stroke-miterlimit="10" stroke-width="2"/><path d="m39.13 39.13h-39.13" fill="none" stroke="#fff" stroke-miterlimit="10" stroke-width="2"/></pattern><g clip-path="url(#a)"><path d="m-8.84 28.27a56.49 56.49 0 0 0 -12.23 18.41c-2.87 6.93-4.84 14.3-4.84 21.67s3.2 14.24 6.07 21.16c2.76 6.67 4.69 14.38 10.12 19.8a59.44 59.44 0 0 0 18.72 12.88c6.92 2.87 14.94 3.44 22.32 3.44s14.65-2.37 21.57-5.23a56 56 0 0 0 18.24-12.27 55.63 55.63 0 0 0 12.14-18.26c2.87-6.92 6.15-14.15 6.15-21.52s-2.42-14.94-5.33-21.86c-2.77-6.67-8.51-11.55-13.94-17s-10.15-11.56-16.82-14.33c-6.93-2.86-14.67-4.87-22-4.87s-14.33 3.95-21.33 6.82c-6.65 2.76-13.4 5.74-18.84 11.16z" fill="url(#b)"/></g></svg>