<svg viewBox="0 0 410 356.9" xmlns="http://www.w3.org/2000/svg" xmlns:xlink="http://www.w3.org/1999/xlink"><clipPath id="a"><path d="m0 204.9h142.65v152h-142.65z" transform="matrix(-1 0 0 -1 142.65 561.8)"/></clipPath><pattern id="b" height="39.13" patternTransform="translate(-165.39 10.45)" patternUnits="userSpaceOnUse" viewBox="0 0 39.13 39.13" width="39.13"><path d="m0 0h39.13v39.13h-39.13z" fill="none"/><path d="m0 0h39.13" fill="none" stroke="#ffe700" stroke-miterlimit="10" stroke-width="2"/><path d="m0 6.52h39.13" fill="none" stroke="#ffe700" stroke-miterlimit="10" stroke-width="2"/><path d="m0 13.04h39.13" fill="none" stroke="#ffe700" stroke-miterlimit="10" stroke-width="2"/><path d="m0 19.57h39.13" fill="none" stroke="#ffe700" stroke-miterlimit="10" stroke-width="2"/><path d="m0 26.09h39.13" fill="none" stroke="#ffe700" stroke-miterlimit="10" stroke-width="2"/><path d="m0 32.61h39.13" fill="none" stroke="#ffe700" stroke-miterlimit="10" stroke-width="2"/><path d="m39.13 39.13h-39.13" fill="none" stroke="#ffe700" stroke-miterlimit="10" stroke-width="2"/></pattern><pattern id="c" height="5.67" patternTransform="matrix(0 -.9 .9 0 28.96 -29.39)" patternUnits="userSpaceOnUse" viewBox="0 0 5.67 5.67" width="5.67"><path d="m0 0h5.67v5.67h-5.67z" fill="none"/><circle cx=".99" cy=".99" fill="#45403f" r=".99"/></pattern><pattern id="d" height="5.67" patternTransform="matrix(.9 0 0 .9 5.83 -9.14)" patternUnits="userSpaceOnUse" viewBox="0 0 5.67 5.67" width="5.67"><path d="m0 0h5.67v5.67h-5.67z" fill="none"/><circle cx=".99" cy=".99" fill="#ffe700" r=".99"/></pattern><g clip-path="url(#a)"><path d="m110.33 262a8.69 8.69 0 0 0 -.77-3.34 10.63 10.63 0 0 0 -4.73-4.71 8.41 8.41 0 0 0 -9.45 1.93 6.27 6.27 0 0 0 -2.7 6.12 8.44 8.44 0 0 0 .85 3.3 8.8 8.8 0 0 0 1.56 3.1 11.8 11.8 0 0 0 6.41 2.6 8.85 8.85 0 0 0 3.29-1.11 7.26 7.26 0 0 0 4.87-4.57 8.64 8.64 0 0 0 .67-3.32z" fill="#ffe700"/><path d="m129 323.92a24.59 24.59 0 0 0 -2.18-9.46 23.94 23.94 0 0 0 -5.64-7.73 23.91 23.91 0 0 0 -7.76-5.59 24.55 24.55 0 0 0 -9.43-2.3 24.61 24.61 0 0 0 -9.44 2.27 24 24 0 0 0 -7.85 5.51c-2.31 2.31-5 4.45-6.32 7.51s-1.33 6.39-1.33 9.79 1.16 6.38 2.39 9.34 2.11 6.49 4.41 8.79a26 26 0 0 0 8.51 5.12 25.49 25.49 0 0 0 9.63 2.39c3.4 0 6.38-1.9 9.33-3.13s6.12-2.45 8.43-4.76a25.52 25.52 0 0 0 7.25-17.75z" fill="url(#b)"/><path d="m55.6 304.45c5-5 7.93-11.77 10.48-17.93a53.3 53.3 0 0 0 4.42-20.08c0-6.8-2.88-13.24-5.53-19.63-2.54-6.16-4.65-13.08-9.66-18.09s-12.16-6.57-18.31-9.12c-6.38-2.64-12.6-5.7-19.4-5.7s-13.23 2.57-19.6 5.21a50.34 50.34 0 0 0 -16.86 10.89c-5 5-10.4 9.83-12.95 16-2.64 6.39-2.48 13.66-2.48 20.46s.25 13.91 2.89 20.29c2.55 6.16 7 11.72 12 16.73a52.5 52.5 0 0 0 16.9 11.46c6.39 2.64 13.29 2.7 20.09 2.7s14.21 1.17 20.6-1.47a55.38 55.38 0 0 0 17.41-11.72z" fill="url(#c)"/></g><path d="m328 42.11a40.27 40.27 0 0 0 3.58 15.52c2.08 5 5.47 8.9 9.26 12.69s7.7 7.09 12.73 9.17c4.85 2 9.91 3.79 15.48 3.79s10.66-1.73 15.51-3.74a39.52 39.52 0 0 0 12.89-9c3.78-3.79 8.29-7.31 10.37-12.34 2-4.84 2.18-10.48 2.18-16s-1.91-10.49-3.92-15.34c-2.08-5-3.46-10.65-7.25-14.44s-8.94-6.32-14-8.4c-4.83-2.1-10.2-4.02-15.78-4.02s-10.46 3.13-15.31 5.14c-5 2.09-10.05 4-13.84 7.81a41.88 41.88 0 0 0 -11.9 29.16z" fill="url(#d)"/></svg>