<svg viewBox="0 0 210 170" xmlns="http://www.w3.org/2000/svg" xmlns:xlink="http://www.w3.org/1999/xlink"><clipPath id="a"><path d="m0 0h210v170h-210z"/></clipPath><pattern id="b" height="39.13" patternTransform="translate(-154.73 11.76)" patternUnits="userSpaceOnUse" viewBox="0 0 39.13 39.13" width="39.13"><path d="m0 0h39.13v39.13h-39.13z" fill="none"/><path d="m0 0h39.13" fill="none" stroke="#ffe700" stroke-miterlimit="10" stroke-width="2"/><path d="m0 6.52h39.13" fill="none" stroke="#ffe700" stroke-miterlimit="10" stroke-width="2"/><path d="m0 13.04h39.13" fill="none" stroke="#ffe700" stroke-miterlimit="10" stroke-width="2"/><path d="m0 19.57h39.13" fill="none" stroke="#ffe700" stroke-miterlimit="10" stroke-width="2"/><path d="m0 26.09h39.13" fill="none" stroke="#ffe700" stroke-miterlimit="10" stroke-width="2"/><path d="m0 32.61h39.13" fill="none" stroke="#ffe700" stroke-miterlimit="10" stroke-width="2"/><path d="m39.13 39.13h-39.13" fill="none" stroke="#ffe700" stroke-miterlimit="10" stroke-width="2"/></pattern><pattern id="c" height="5.67" patternTransform="matrix(0 -.9 .9 0 26.25 -22.17)" patternUnits="userSpaceOnUse" viewBox="0 0 5.67 5.67" width="5.67"><path d="m0 0h5.67v5.67h-5.67z" fill="none"/><circle cx=".99" cy=".99" fill="#45403f" r=".99"/></pattern><g clip-path="url(#a)"><path d="m55.67 41.85a13.59 13.59 0 0 1 1.21-5.24 13.3 13.3 0 0 1 3.12-4.28 13.19 13.19 0 0 1 4.3-3.09 13.51 13.51 0 0 1 5.22-1.24 13.54 13.54 0 0 1 5.23 1.26 13.27 13.27 0 0 1 4.35 3.05c1.28 1.28 2.8 2.47 3.5 4.16a14.25 14.25 0 0 1 .74 5.42 13.31 13.31 0 0 1 -1.34 5.11c-.7 1.7-1.16 3.6-2.44 4.88a14.51 14.51 0 0 1 -4.71 2.83 14.2 14.2 0 0 1 -5.34 1.33c-1.88 0-3.53-1.06-5.17-1.74a13.85 13.85 0 0 1 -4.67-2.63 14.17 14.17 0 0 1 -3-4.54 13.91 13.91 0 0 1 -1-5.28z" fill="#ffe700"/><path d="m20.35 116.45a36.18 36.18 0 0 1 3.2-13.89c1.87-4.49 4.9-8 8.28-11.35s6.9-6.34 11.39-8.2 8.87-3.39 13.85-3.39 9.54 1.54 13.87 3.38a35.49 35.49 0 0 1 11.53 8.09c3.39 3.39 7.41 6.54 9.28 11s2 9.38 2 14.37-1.71 9.38-3.51 13.71c-1.86 4.5-3.1 9.53-6.49 12.92s-8 5.65-12.48 7.52-9.16 3.51-14.15 3.51-9.36-2.8-13.69-4.6c-4.5-1.86-9-3.6-12.38-7a37.39 37.39 0 0 1 -10.65-26.07z" fill="url(#b)"/><path d="m134.63 111.91c-5.31-5.31-8.41-12.48-11.11-19a56.53 56.53 0 0 1 -4.69-21.29c0-7.22 3.06-14 5.86-20.82 2.7-6.53 4.94-13.88 10.25-19.19s12.89-7 19.42-9.66c6.77-2.8 13.36-6.05 20.58-6.05s14 2.73 20.78 5.53a53.24 53.24 0 0 1 17.87 11.57c5.31 5.31 11 10.43 13.73 17 2.8 6.77 2.63 14.48 2.63 21.7s-.26 14.74-3.07 21.51c-2.7 6.54-7.38 12.43-12.69 17.74a55.82 55.82 0 0 1 -17.95 12.05c-6.77 2.8-14.09 2.86-21.3 2.86s-15.07 1.24-21.85-1.56a58.52 58.52 0 0 1 -18.46-12.39z" fill="url(#c)"/></g></svg>