<svg viewBox="0 0 76.5 76.5" xmlns="http://www.w3.org/2000/svg"><path d="m76.5 37.82a36.64 36.64 0 0 0 -3.34-14.26c-1.94-4.61-5.1-8.18-8.64-11.66s-7.19-6.5-11.87-8.42-9.25-3.48-14.45-3.48-9.94 1.59-14.47 3.43a37 37 0 0 0 -12 8.31c-3.55 3.48-7.73 6.71-9.73 11.33-1.84 4.45-2 9.63-2 14.75s1.78 9.64 3.66 14.09c1.94 4.62 3.23 9.78 6.76 13.26s8.34 5.81 13 7.72c4.58 1.85 9.58 3.61 14.78 3.61s9.8-2.88 14.28-4.72c4.69-1.92 9.38-3.7 12.92-7.18a38 38 0 0 0 8.21-12.34 37.15 37.15 0 0 0 2.89-14.44z" fill="#ffe700"/></svg>