<svg viewBox="0 0 236.17 60" xmlns="http://www.w3.org/2000/svg"><g fill="#45403f"><path d="m82.4 54.55h.64v5.31h-.64z"/><path d="m108.97 54.55h.64v5.31h-.64z"/><path d="m119.33 54.55h.64v5.31h-.64z"/><path d="m146.44 54.69h.64v5.31h-.64z"/><path d="m166.2 54.63h-1.09a1.07 1.07 0 0 0 -1.11 1.07v3a1.07 1.07 0 0 0 1.07 1.07h1.09a1.07 1.07 0 0 0 1.07-1.07v-3a1.07 1.07 0 0 0 -1.03-1.07zm.43 4.09a.43.43 0 0 1 -.43.43h-1.09a.43.43 0 0 1 -.43-.43v-3a.43.43 0 0 1 .43-.43h1.09a.43.43 0 0 1 .43.43z"/><path d="m196.14 54.63h-1.09a1.07 1.07 0 0 0 -1.05 1.07v3a1.07 1.07 0 0 0 1.07 1.07h1.09a1.07 1.07 0 0 0 1.07-1.07v-3a1.07 1.07 0 0 0 -1.09-1.07zm.43 4.09a.43.43 0 0 1 -.43.43h-1.09a.43.43 0 0 1 -.43-.43v-3a.43.43 0 0 1 .43-.43h1.09a.43.43 0 0 1 .43.43z"/><path d="m133.48 58.72a.43.43 0 0 1 -.43.43h-1.05a.43.43 0 0 1 -.43-.43v-4h-.64v4a1.07 1.07 0 0 0 1.07 1.07h1.09a1.07 1.07 0 0 0 1.07-1.07v-4h-.64z"/><path d="m173.37 54.63h-2.15v5.16h2.15a1.08 1.08 0 0 0 1.08-1.07v-3a1.08 1.08 0 0 0 -1.08-1.09zm.44 4.09a.44.44 0 0 1 -.44.43h-1.52v-3.88h1.52a.44.44 0 0 1 .44.43z"/><path d="m180.55 54.63h-1.09a1.07 1.07 0 0 0 -1.07 1.07v3a1.07 1.07 0 0 0 1.07 1.07h1.09a1.07 1.07 0 0 0 1.07-1.07v-3a1.07 1.07 0 0 0 -1.07-1.07zm.43 4.09a.43.43 0 0 1 -.43.43h-1.09a.43.43 0 0 1 -.43-.43v-3a.43.43 0 0 1 .43-.43h1.09a.43.43 0 0 1 .43.43z"/><path d="m87.05 54.55h.64v5.31h-.64z"/><path d="m90.36 54.55h-.78l-1.71 2.49 2.08 2.83h.79l-2.09-2.84z"/><path d="m156.76 54.55h.64v5.31h-.64z"/><path d="m160.07 54.55h-.78l-1.71 2.49 2.08 2.83h.79l-2.09-2.84z"/><path d="m140.19 57.75-1.43-3.2h-.7l.05.11v5.21h.64v-3.78l1.06 2.37h.76l1.06-2.37v3.78h.64v-5.21l.04-.11h-.69z"/><path d="m187.83 57.75-1.43-3.2h-.69l.04.11v5.21h.64v-3.78l1.06 2.37h.76l1.06-2.37v3.78h.64v-5.21l.05-.11h-.7z"/><path d="m123.89 55.27h2.23l-2.23 3.97v.55h3.08v-.64h-2.3l2.3-4.09v-.43h-3.08z"/><path d="m95.32 54.55-1.56 5.32h.66l1.35-4.58 1.34 4.58h.67l-1.56-5.32z"/><path d="m104.62 56.74v-1a1.07 1.07 0 0 0 -1.07-1.07h-2.15v5.24h.6v-4.6h1.52a.44.44 0 0 1 .44.43v1a.44.44 0 0 1 -.44.44h-.49l1.19 2.69h.69l-.91-2.15a1.07 1.07 0 0 0 .62-.98z"/><path d="m77.75 56.82h-1.89v-2.27h-.64v5.32h.64v-2.41h1.89v2.41h.63v-5.32h-.63z"/><path d="m201.19 59.79h2.89v-.64h-2.26v-1.69h1.74v-.64h-1.74v-1.55h2.26v-.64h-2.89z"/><path d="m210.83 54.56v4.28l-2.25-4.28h-.55v5.21h.64v-3.68l1.93 3.68h.87v-5.21z"/><path d="m136.74 32.64v-8.56h-5v-1.84h-1.74v1.84h-5v8.56h5v7a3.15 3.15 0 0 1 -.07.86 1.47 1.47 0 0 1 -.56.06h-2v1.83h2c1.75 0 2.47-.8 2.47-2.75v-7zm-9.91-6.73h8.07v4.9h-8.07z"/><path d="m128.04 27.6h5.66v1.84h-5.66z"/><path d="m123.15 34.62v1.83h2.08l-2.08 2.66v2.97l5.85-7.46z"/><path d="m138.59 42.08v-2.97l-2.08-2.66h2.08v-1.83h-5.85z"/><path d="m103.4 22.7h-1.83v12.7h1.6l2.22-2.5v-2.77l-1.99 2.24z"/><path d="m109.37 22.91h-2v1.84h2c.65 0 1 0 1 1.78v8.71a2.9 2.9 0 0 1 -1 2.41l-2.63 2.64v2.6l3.96-3.89a4.71 4.71 0 0 0 1.52-3.71v-8.76c0-1.08 0-3.62-2.85-3.62z"/><path d="m81.73 28.06h-1.19v-5.2h-1.83v5.2h-3v1.83h3v5.84a7.09 7.09 0 0 1 -.19 2.38c-.55.55-1.18 1.26-1.72 1.89v2.82s1.74-2.19 3-3.44c.77-.77.75-2.2.73-3.71 0-.21 0-.41 0-.61v-5.2h1.19c1.94 0 2.55.35 2.55 2.54v6.18c0 2-.64 2-1 2h-2.88v1.83h2.91c1 0 2.81-.5 2.81-3.82v-6.16c0-3.85-2.21-4.37-4.38-4.37z"/><path d="m85.32 24.84-.07 1.84a3.55 3.55 0 0 1 3.55 3.67v4.83h1.84v-4.83a5.35 5.35 0 0 0 -5.32-5.51z"/><path d="m50.56 24.63h6.25v1.84h-6.25z"/><path d="m62 26-1.84.05v13c0 .06 0 1.53-1.07 1.53h-4a1.63 1.63 0 0 1 -1.37-1.69v-11h-1.85v11a3.46 3.46 0 0 0 3.21 3.52h4c1.92.02 2.92-1.67 2.92-3.34v-7.07a7.16 7.16 0 0 0 2.83 2.61v-2.13c-2.61-2.04-2.83-6.41-2.83-6.48z"/><path d="m174.11 38.43a3.38 3.38 0 0 1 1-3.58c.43-.39 1.16-1 2-1.6h.16v-.12c1-.73 2.08-1.52 3-2.2v-2.25c-.82.58-1.94 1.37-3 2.17v-8.45h-1.83v9.82c-.65.5-1.2.94-1.56 1.27a5.24 5.24 0 0 0 -1.53 5.6 4 4 0 0 0 3.92 2.5h7.25v-1.84h-7.25a2.14 2.14 0 0 1 -2.16-1.32z"/><path d="m181.27 23.86h1.84v4.5h-1.84z"/><path d="m184.3 23.86h1.84v4.5h-1.84z"/><path d="m207.46 37.38a2.83 2.83 0 0 1 -2.91 3.06c-2.23 0-3.26-1.07-3.26-3.36v-3.37h2.65v-1.83h-2.65v-4.3h2.65v-1.83h-2.65v-3.05h-1.84v3.05h-2.39v1.83h2.39v4.3h-2.39v1.83h2.39v3.37c0 3.3 1.86 5.2 5.1 5.2s4.74-2.46 4.74-4.9v-3.67h-1.83z"/><path d="m151.29 25.01h7.07l-1.61 1.25v2.33l4.43-3.46v-1.96h-9.89z"/><path d="m151.36 37.84v-3.71h-1.84v3.71a3.66 3.66 0 0 0 3.86 3.87h7.69v-1.84h-7.69a1.85 1.85 0 0 1 -2.02-2.03z"/><path d="m220.22 22.4v19.88h15.91v-19.88zm14.07 18h-12.23v-16.17h12.23z"/><path d="m223.34 34.85h4.06v.26l-4 2.36v1.77l4-2.36v2.65h1.53v-1.22l4.07 1.45v-1.62l-4.06-1.46v-1.83h4.06v-4.66h-9.66zm1.53-3.13h6.6v1.6h-6.6z"/><path d="m233.2 28.2h-4.27v-1.03h2.95v-1.53h-2.95v-.8h-1.53v.8h-2.95v1.53h2.95v1.03h-4.27v1.53h10.07z"/><path d="m231.67 37.31.97-1.76h-1.7l-.62 1.23z"/><path d="m11.33 31.43a8.94 8.94 0 0 0 1.27-1.89 9 9 0 0 0 .8-6.39c-.4-1.43-1.4-1.84-2.18-1.62a1.78 1.78 0 0 0 -1 2.37.42.42 0 0 0 0 .1 8 8 0 0 0 1.81 2.6 8.34 8.34 0 0 1 -1.86 3.89 9.27 9.27 0 0 1 -3.53 2.59 12.19 12.19 0 0 1 .8 1.22 11 11 0 0 0 3.89-2.87zm.3-8a1.19 1.19 0 0 1 0-.57c.05 0 .28.14.44.67a4.48 4.48 0 0 1 .19 1 6.25 6.25 0 0 1 -.63-1.06z"/><path d="m19.46 28.89a9.6 9.6 0 0 0 3.22-.81 8.48 8.48 0 0 0 4.1-3.58v-.06a2.11 2.11 0 0 0 -.07-2.18 1.47 1.47 0 0 0 -1.36-.55 1.68 1.68 0 0 0 -1.33 1.06 7.9 7.9 0 0 0 -.52 3.23 8.46 8.46 0 0 1 -4.13 1.46 9.41 9.41 0 0 1 -4.39-.7c-.08.48-.19.95-.32 1.43a11.15 11.15 0 0 0 4.8.7zm5.9-5.59c.07-.15.17-.18.2-.18h.05s.09.27-.1.74a5.13 5.13 0 0 1 -.51.77 6.49 6.49 0 0 1 .36-1.33z"/><path d="m27.06 32.71a9.58 9.58 0 0 0 3.69 2c.33.09.66.17 1 .23a7.44 7.44 0 0 0 3.6-.15 2 2 0 0 0 1.51-1.47 1.52 1.52 0 0 0 -.58-1.45 1.74 1.74 0 0 0 -1.79-.17 8.11 8.11 0 0 0 -2.6 1.82 8.34 8.34 0 0 1 -3.89-1.88 9.27 9.27 0 0 1 -2.59-3.53 11.2 11.2 0 0 1 -1.23.79 11.11 11.11 0 0 0 2.88 3.81zm8 .27a.53.53 0 0 1 .2 0 .24.24 0 0 1 .14 0 .1.1 0 0 1 .05.08s-.13.22-.54.36a5.15 5.15 0 0 1 -1 .19 7.28 7.28 0 0 1 1.16-.61z"/><path d="m7.51 39a9.79 9.79 0 0 0 -2.29-5.59 7.18 7.18 0 0 0 -2.06-1.71 2.2 2.2 0 0 0 -2.37-.2 1.5 1.5 0 0 0 -.79 1.5 1.78 1.78 0 0 0 1.38 1.47 7.9 7.9 0 0 0 3.26.53 8.36 8.36 0 0 1 1.46 4.11 9.39 9.39 0 0 1 -.71 4.42 11.76 11.76 0 0 1 1.43.31 10.9 10.9 0 0 0 .69-4.84zm-5.63-5.89a1 1 0 0 1 -.46-.27s0-.08.16-.12a.68.68 0 0 1 .19 0 1.08 1.08 0 0 1 .61.23h.08a6.32 6.32 0 0 1 .79.52 6.79 6.79 0 0 1 -1.37-.36z"/><path d="m25.78 48.44c-.11.12-.21.24-.31.37a9.54 9.54 0 0 0 -1.77 7.88c.33 1.46 1.06 1.83 1.47 1.93a1.53 1.53 0 0 0 .3 0 1.46 1.46 0 0 0 1.14-.57 2.09 2.09 0 0 0 .19-2.21 7.81 7.81 0 0 0 -1.8-2.57 8.46 8.46 0 0 1 1.87-3.89 9.44 9.44 0 0 1 3.54-2.6 14.23 14.23 0 0 1 -.8-1.22 11 11 0 0 0 -3.83 2.88zm-.27 8a.86.86 0 0 1 .06.62c0 .09-.09.14-.08.15s-.26-.19-.41-.87a.13.13 0 0 0 0-.06 4.48 4.48 0 0 1 -.19-1 7 7 0 0 1 .62 1.18z"/><path d="m10.05 47.16a9.79 9.79 0 0 0 -3.85-2 11.34 11.34 0 0 0 -1.88-.31h-.55a7 7 0 0 0 -2 .28 2 2 0 0 0 -1.6 1.4 1.51 1.51 0 0 0 .56 1.47 1.78 1.78 0 0 0 1.89.16 8.07 8.07 0 0 0 2.6-1.82 8.44 8.44 0 0 1 3.89 1.86 9.38 9.38 0 0 1 2.59 3.54 11.2 11.2 0 0 1 1.23-.74 10.93 10.93 0 0 0 -2.88-3.84zm-8-.27a.42.42 0 0 1 -.42 0s-.06 0-.05-.1.19-.25.63-.36a5 5 0 0 1 1-.2 6.32 6.32 0 0 1 -1.21.66z"/><path d="m37.16 47.05a2 2 0 0 0 -1.44-1.62 8 8 0 0 0 -3.23-.56 8.33 8.33 0 0 1 -1.49-4.12 9.48 9.48 0 0 1 .7-4.4 12.18 12.18 0 0 1 -1.42-.35 10.85 10.85 0 0 0 -.68 4.8 9.38 9.38 0 0 0 1 3.71 10.52 10.52 0 0 0 1.3 1.93 7.35 7.35 0 0 0 2 1.67 2.29 2.29 0 0 0 2.53.3 1.45 1.45 0 0 0 .73-1.36zm-1.42.2s-.36.11-1-.32h-.05a4.24 4.24 0 0 1 -.78-.52 6.83 6.83 0 0 1 1.35.38.82.82 0 0 1 .51.38c-.02.04-.02.07-.03.08z"/><path d="m17.65 51a9.7 9.7 0 0 0 -4.89 1.76 7.23 7.23 0 0 0 -2.45 2.67c-.71 1.53-.35 2.34-.07 2.69a1.37 1.37 0 0 0 1.37.49 2 2 0 0 0 1.47-1.52 8 8 0 0 0 .53-3.2 8.48 8.48 0 0 1 4.13-1.47 9.29 9.29 0 0 1 4.39.7 11.77 11.77 0 0 1 .35-1.42 11.13 11.13 0 0 0 -4.83-.7zm-5.91 5.61a.25.25 0 0 0 0 .07.74.74 0 0 1 -.38.53 1.76 1.76 0 0 1 .22-1.21 5 5 0 0 1 .53-.79 7.22 7.22 0 0 1 -.37 1.37z"/><path d="m2.77 1.55h.15l.08-.05s.1 0 .2.15.14.17.14.2a.15.15 0 0 1 -.07.15.49.49 0 0 0 -.17.21 8.13 8.13 0 0 1 -.77 1.36 4.93 4.93 0 0 0 1.23 1.01 1.25 1.25 0 0 0 -.23.31c0 .07-.06.1-.09.1s-.05 0-.1-.06a5.88 5.88 0 0 1 -.92-.93v2.63 1.07s0 .06-.07.06h-.36c-.05 0-.06 0-.06-.06s0-.39 0-1.07v-2.37a9.14 9.14 0 0 1 -1.06 1c-.06 0-.09.07-.12.07s0 0-.08-.11a1 1 0 0 0 -.2-.32 6.6 6.6 0 0 0 2.38-2.9h-1.17c-.6 0-.78 0-.83 0s-.06 0-.06 0v-.4c0-.05 0-.06.06-.06h1.1v-.48a4.72 4.72 0 0 0 -.06-1h.53c.06 0 .1.05.1.07a.3.3 0 0 1 0 .16 2 2 0 0 0 0 .66v.51zm4.9 5.8c0 .06 0 .06-.06.06h-4.51c-.1 0-.1 0-.1-.06v-.35c0-.06 0-.06.07-.06h1.93v-3.53h-.48c-.74 0-1 0-1 0s-.06 0-.06-.07v-.34c0-.06 0-.07.06-.07s.3 0 1 0h.48v-1.65a5.92 5.92 0 0 0 0-1.16 3.83 3.83 0 0 1 .54.05c.06 0 .1 0 .1.07a1.21 1.21 0 0 1 0 .14 3.32 3.32 0 0 0 -.06.89v1.67h.69 1s.07 0 .07.07v.37c0 .06 0 .07-.07.07s-.29 0-1 0h-.75v3.47h2.09s.06 0 .06.06z"/><path d="m18.55 3.5c-.05.09-.07.14-.11.14s-.05 0-.11-.06a7.89 7.89 0 0 1 -3.4-2.82 8.17 8.17 0 0 1 -3.25 2.84.19.19 0 0 1 -.12 0s-.05 0-.1-.13a1 1 0 0 0 -.25-.28 7.29 7.29 0 0 0 3.29-2.71 2.07 2.07 0 0 0 .21-.48 2.71 2.71 0 0 1 .51.11c.08 0 .11.05.11.1a.09.09 0 0 1 -.06.09s-.06 0-.09.06a7.63 7.63 0 0 0 3.6 2.79 1.13 1.13 0 0 0 -.23.35zm-.38 1.36c0 .06 0 .07-.07.07s-.3 0-1.11 0h-2.48a20.26 20.26 0 0 1 -.84 2c1-.07 2.06-.18 3-.29-.23-.31-.48-.62-.76-.93 0-.05 0-.08 0-.12l.24-.14h.12a15 15 0 0 1 1.55 2s0 .07 0 .12l-.25.18a.16.16 0 0 1 -.09 0s0 0-.06 0c-.16-.24-.3-.48-.47-.71-1.42.2-3 .36-4.45.47a.58.58 0 0 0 -.31.07.11.11 0 0 1 -.1 0c-.05 0-.07 0-.09-.09a4.39 4.39 0 0 1 -.12-.57 6.4 6.4 0 0 0 .88 0h.35a17.32 17.32 0 0 0 .85-2h-.96c-.8 0-1.07 0-1.11 0s-.07 0-.07-.07v-.37c0-.05 0-.06.07-.06h6.21c.06 0 .07 0 .07.06zm-1.53-1.56c0 .06 0 .07-.07.07s-.26 0-.94 0h-1.31c-.68 0-.91 0-1 0s-.06 0-.06-.07v-.36c0-.06 0-.07.06-.07s.27 0 1 0h1.31.94s.07 0 .07.07z"/><path d="m24.34 1.55h.14a.15.15 0 0 1 .08 0s.1.05.21.16.14.16.14.19a.12.12 0 0 1 -.07.13c-.05 0-.09.09-.15.24a9.07 9.07 0 0 1 -.76 1.37 4.29 4.29 0 0 0 1 .92.94.94 0 0 0 -.23.32s0 .06-.07.06-.05 0-.11-.07a4 4 0 0 1 -.69-.87v2.53 1.17s0 .06-.08.06h-.35c-.06 0-.07 0-.07-.06s0-.49 0-1.17v-2.22c-.28.3-.58.6-.91.89-.05 0-.09.08-.12.08s-.05 0-.07-.1a1 1 0 0 0 -.2-.35 6.47 6.47 0 0 0 2.24-2.83h-1.09c-.58 0-.76 0-.81 0s-.06 0-.06-.07v-.33c0-.05 0-.06.06-.06h1v-.48a4 4 0 0 0 -.07-1 4.08 4.08 0 0 1 .53.06c.06 0 .1 0 .1.07a.43.43 0 0 1 -.05.16 2.22 2.22 0 0 0 -.05.65v.51zm5-.54c0 .05 0 .06-.07.06h-4.33c-.06 0-.07 0-.07-.06v-.36c0-.06 0-.06.07-.06h4.35c.06 0 .07 0 .07.06zm-.16 5v1.57s0 .06-.05.06h-.33c-.06 0-.06 0-.06-.06v-.29h-3.28v.38c0 .06 0 .07-.06.07h-.34c-.06 0-.07 0-.07-.07s0-.26 0-1.59v-.77c0-.78 0-1 0-1s0-.07.07-.07h4.09c.05 0 .05 0 .05.07v1.74zm-.49-3.14v.57s0 .07-.07.07-.26 0-.93 0h-1.25c-.67 0-.9 0-1 0s-.06 0-.06-.07 0-.16 0-.57v-.52c0-.41 0-.52 0-.58s0-.06.06-.06h3.17c.06 0 .07 0 .07.06s0 .17 0 .57zm-1.85 1.76h-1.38v.87h1.38zm0 1.29h-1.38v.94h1.38zm1.4-3.79h-2.33v1h2.33zm.5 2.5h-1.46v.87h1.46zm0 1.29h-1.46v.94h1.46z"/><path d="m35.3 1.55h.16a.24.24 0 0 1 .1 0s.08 0 .2.14.15.19.15.22 0 .07-.07.11-.11.1-.17.25a9.32 9.32 0 0 1 -.73 1.32 4.8 4.8 0 0 0 1.2 1.12 1.24 1.24 0 0 0 -.25.29c0 .06 0 .09-.09.09s0 0-.11-.08a5.17 5.17 0 0 1 -.86-1v2.6 1.09s0 .06-.07.06h-.36c-.06 0-.07 0-.07-.06s0-.42 0-1.09v-2.31a7.66 7.66 0 0 1 -1 1 .2.2 0 0 1 -.11.07s-.06 0-.09-.11a1.17 1.17 0 0 0 -.13-.34 6.77 6.77 0 0 0 2.25-2.92h-1.11c-.59 0-.77 0-.81 0s-.06 0-.06-.07v-.33c0-.05 0-.06.06-.06h1v-.5a4.55 4.55 0 0 0 -.04-.94h.53s.09.05.09.07a.43.43 0 0 1 0 .16 3.08 3.08 0 0 0 0 .68v.49zm5.18 5.85c0 .06 0 .07-.07.07s-.31 0-1.13 0h-2.68c-.82 0-1.09 0-1.13 0s-.06 0-.06-.07v-.4c0-.06 0-.07.06-.07s.29 0 1 0v-3.54a6.77 6.77 0 0 0 -.06-1.17 4.21 4.21 0 0 1 .55.06c.06 0 .1 0 .1.07a.43.43 0 0 1 0 .16 3.35 3.35 0 0 0 -.05.88v3.61h1v-5.57a7.37 7.37 0 0 0 -.07-1.23 4.68 4.68 0 0 1 .55 0c.06 0 .1 0 .1.07a.49.49 0 0 1 -.05.16 4.08 4.08 0 0 0 0 .94v1.89h.9.63s.07 0 .07.07v.37c0 .06 0 .07-.07.07s-.17 0-.63 0h-.9v3.23h.78 1.13s.07 0 .07.07z"/><path d="m44.24 2.47c0-.07.08-.07.13 0a6.65 6.65 0 0 1 1.14.89s0 .06 0 .12l-.19.24c-.09.1-.09.11-.14.06a6 6 0 0 0 -1.11-.94c-.06 0-.05 0 0-.12zm.63 4.76a2.41 2.41 0 0 0 -.14.38c0 .06 0 .1-.06.1a.21.21 0 0 1 -.12 0 3.16 3.16 0 0 1 -.39-.28 3.15 3.15 0 0 0 .36-.63 12.17 12.17 0 0 0 .74-2 1.34 1.34 0 0 0 .27.26c.12.07.12.08.07.25-.21.62-.49 1.32-.73 1.92zm-.15-6.86c.06-.06.08-.07.13 0a6.27 6.27 0 0 1 1.08.92v.16l-.17.23c-.07.08-.08.08-.13 0a6.3 6.3 0 0 0 -1.08-1c-.05 0-.05-.06 0-.13zm6.49 3.94c0 .07 0 .08-.05.08s-.33 0-1.15 0h-1.71a19 19 0 0 1 -.82 2.34c.9-.09 1.68-.19 2.51-.33a11.31 11.31 0 0 0 -.73-1c0-.05 0-.07.05-.13l.2-.13h.11a11.74 11.74 0 0 1 1.5 2.15s0 .07-.06.13l-.23.15c-.1.08-.12.08-.14 0-.14-.27-.28-.54-.44-.79-1.27.23-2.37.37-3.72.53a.8.8 0 0 0 -.34.08s-.08.06-.12.06-.09 0-.11-.11a4.72 4.72 0 0 1 -.13-.54h.83.29a16.29 16.29 0 0 0 .81-2.39h-.7c-.82 0-1.1 0-1.15 0s-.06 0-.06-.08v-.33c0-.06 0-.07.06-.07s.33 0 1.15 0h1.07v-1.57h-.69c-.79 0-1 0-1.09 0s-.07 0-.07-.07v-.29c0-.06 0-.06.07-.06h1.78v-.65a7.77 7.77 0 0 0 0-1.1 4.07 4.07 0 0 1 .52 0c.06 0 .1 0 .1.08a.56.56 0 0 1 0 .15 3.3 3.3 0 0 0 -.05.81v.67h2.12s.06 0 .06.06v.36c0 .06 0 .07-.06.07s-.31 0-1.1 0h-1v1.52h1.28 1.15s.05 0 .05.07z"/><path d="m61.82 7.43c0 .09-.08.12-.11.12s-.06 0-.12-.06a6.91 6.91 0 0 1 -3-4.68 6.37 6.37 0 0 1 -3.09 4.67.22.22 0 0 1 -.12.06s-.06 0-.11-.13a1.7 1.7 0 0 0 -.3-.3 6.15 6.15 0 0 0 3.25-5.76 8.4 8.4 0 0 0 -.06-1 3.92 3.92 0 0 1 .61.07c.06 0 .11.05.11.1a.34.34 0 0 1 -.05.17 1.31 1.31 0 0 0 -.07.48v.44a7 7 0 0 0 3.34 5.47 1.35 1.35 0 0 0 -.28.35z"/><path d="m72.94 1.51c0 .06 0 .07-.06.07s-.3 0-1.07 0h-4.72c-.77 0-1 0-1.07 0s-.06 0-.06-.07v-.32c0-.06 0-.07.06-.07s.3 0 1.07 0h3c.13-.21.25-.44.36-.66a1.42 1.42 0 0 0 .13-.36l.47.13s.08.05.08.09a.14.14 0 0 1 -.07.11.76.76 0 0 0 -.13.17 5.92 5.92 0 0 1 -.35.54h1.23 1.07s.06 0 .06.07zm-5.83 4.3c.09 0 .1.06.08.1a4.87 4.87 0 0 1 -.72 1.4c0 .06-.06.05-.13 0l-.22-.15c-.1-.07-.1-.09-.07-.14a3.58 3.58 0 0 0 .7-1.31c0-.06 0-.06.15 0zm1.52-1.95h.13a5.75 5.75 0 0 1 .56 1.07c0 .06 0 .1-.08.13l-.19.07c-.1 0-.12 0-.13 0l-.12-.28c-.72.09-1.55.18-2.14.22a.47.47 0 0 0 -.28.06.14.14 0 0 1 -.1 0s-.06 0-.08-.11-.06-.28-.09-.44h.67c.26-.26.49-.51.7-.75a10.4 10.4 0 0 0 -1.12-1.17s0-.06 0-.13l.13-.15c.07-.06.08-.07.13 0l.33.31a6.67 6.67 0 0 0 .48-.7 1.66 1.66 0 0 0 .18-.38 2.36 2.36 0 0 1 .38.22c.06.05.08.07.08.11a.08.08 0 0 1 -.07.06c-.06 0-.11.09-.21.23a8.13 8.13 0 0 1 -.55.72c.16.17.32.35.49.56.22-.28.43-.55.65-.86a1.49 1.49 0 0 0 .22-.38 2.37 2.37 0 0 1 .37.26.11.11 0 0 1 0 .1.11.11 0 0 1 -.08.1 1.78 1.78 0 0 0 -.3.33 18.5 18.5 0 0 1 -1.31 1.5l1.28-.1a2.34 2.34 0 0 0 -.18-.46s0-.08.07-.12zm-.63-3.73h.12a6.53 6.53 0 0 1 .52.74c0 .05 0 .08-.07.11l-.24.11c-.11 0-.11 0-.15 0a3.64 3.64 0 0 0 -.49-.76s0-.08.06-.11zm.37 6.5c0 .25 0 .39.18.45a2.34 2.34 0 0 0 .88.09 2.23 2.23 0 0 0 1.18-.17c.17-.11.23-.34.25-.74a1.64 1.64 0 0 0 .35.18c.14 0 .14 0 .12.2-.09.49-.2.64-.41.76a2.93 2.93 0 0 1 -1.48.21 2.8 2.8 0 0 1 -1.19-.14c-.19-.11-.34-.24-.34-.71v-.7a4 4 0 0 0 0-.65 3.37 3.37 0 0 1 .5.05c.07 0 .1 0 .1.07s0 .06 0 .1a1.06 1.06 0 0 0 0 .47zm.87-1.26c.08-.06.09-.07.15 0a5.82 5.82 0 0 1 .77.73s0 0 0 .14l-.16.13c-.09.09-.1.09-.14 0a5.61 5.61 0 0 0 -.75-.79s0-.05 0-.11zm2.68-1.67h.12a8.48 8.48 0 0 1 .79 1.3s0 .08-.06.12l-.19.09c-.09 0-.12 0-.14 0s-.15-.31-.23-.46c-.72.1-1.52.2-2.09.24-.18 0-.25 0-.28.08a.18.18 0 0 1 -.09 0s-.08 0-.1-.1-.06-.28-.09-.44h.35c.26-.26.49-.52.72-.77a9.91 9.91 0 0 0 -1.15-1.18s0-.06 0-.14l.13-.13c.07-.08.08-.09.12 0l.37.34a7.47 7.47 0 0 0 .51-.65 2.53 2.53 0 0 0 .16-.36 2.7 2.7 0 0 1 .38.21s.08.08.08.11a.11.11 0 0 1 -.07.09.84.84 0 0 0 -.2.23c-.15.21-.32.45-.55.73a6.59 6.59 0 0 1 .49.54c.23-.28.46-.58.69-.89a2 2 0 0 0 .19-.36 1.87 1.87 0 0 1 .36.26c.06.05.07.06.07.11s0 .07-.08.1-.17.14-.31.33a16.52 16.52 0 0 1 -1.34 1.51c.5 0 1-.09 1.53-.15a5.29 5.29 0 0 0 -.32-.5c0-.05 0-.08.06-.12zm0 1.91c.07-.05.08-.06.13 0a6.46 6.46 0 0 1 .9 1.27s0 .08-.07.14l-.21.13c-.1.07-.11.08-.14 0a5.21 5.21 0 0 0 -.86-1.31s0-.06 0-.11z"/><path d="m83.74 2.42v.83s0 .07-.06.07h-.36c-.06 0-.06 0-.06-.07v-1.31h-2.73v1.06.91s0 .06-.07.06h-.36c-.06 0-.07 0-.07-.06s0-.3 0-.91v-1h-2.61v1.25c0 .06 0 .07-.06.07h-.36s-.06 0-.06-.07 0-.17 0-.83v-.34c0-.33 0-.47 0-.51s0-.07.06-.07.33 0 1.1 0h2v-.59h-1.44c-.82 0-1.09 0-1.13 0s-.07 0-.07-.07v-.32c0-.07 0-.08.07-.08s.31 0 1.13 0h3.39 1.14s0 0 0 .08v.34.07s-.33 0-1.14 0h-1.52v.61h2.07 1.1s.06 0 .06.07 0 .18 0 .45zm0 3.33c0 .06 0 .07-.07.07s-.3 0-1.08 0h-2.76a10.78 10.78 0 0 1 -.7 1.2c.94-.06 2.05-.15 2.89-.26-.17-.17-.35-.33-.55-.5 0 0 0 0 0-.11l.2-.13h.13a8.75 8.75 0 0 1 1.36 1.37s0 .07 0 .13l-.16.12c-.1.08-.12.08-.17 0a5.56 5.56 0 0 0 -.42-.54c-1.25.15-2.88.31-4.25.41a1.2 1.2 0 0 0 -.38 0s-.08 0-.11 0-.07 0-.08-.1a4 4 0 0 1 -.1-.5 6.48 6.48 0 0 0 .86 0h.26a8.79 8.79 0 0 0 .72-1.23h-1.22c-.78 0-1 0-1.08 0s-.07 0-.07-.07v-.19c0-.06 0-.07.07-.07s.3 0 1.08 0h4.51 1.08s.07 0 .07.07zm-.74-1.06c0 .06 0 .07-.07.07s-.32 0-1.14 0h-2.91c-.83 0-1.1 0-1.14 0s-.07 0-.07-.07v-.32c0-.06 0-.07.07-.07h5.17c.06 0 .07 0 .07.07zm-3.47-1.91c0 .06 0 .07-.07.07s-.14 0-.53 0h-.38a5 5 0 0 0 -.52 0c-.06 0-.07 0-.07-.07v-.28c0-.06 0-.07.07-.07a5 5 0 0 0 .52 0h.38.53s.07 0 .07.07zm0 .87c0 .06 0 .07-.07.07s-.14 0-.53 0h-.38a5 5 0 0 0 -.52 0c-.06 0-.07 0-.07-.07v-.28c0-.06 0-.07.07-.07a5 5 0 0 0 .52 0h.38.53s.07 0 .07.07zm3.17-.87c0 .06 0 .07-.06.07s-.14 0-.55 0h-.42c-.41 0-.5 0-.55 0s-.07 0-.07-.07v-.28c0-.06 0-.07.07-.07s.14 0 .55 0h.42.55s.06 0 .06.07zm0 .87c0 .06 0 .07-.06.07s-.14 0-.55 0h-.42c-.41 0-.5 0-.55 0s-.07 0-.07-.07v-.28c0-.06 0-.07.07-.07s.14 0 .55 0h.42.55s.06 0 .06.07z"/><path d="m94.79 5.29c0 .06 0 .07-.06.07s-.3 0-1.06 0h-2.15v.89.73s0 .43-.22.55-.37.15-1.12.13c-.15 0-.15 0-.19-.16a1.71 1.71 0 0 0 -.17-.39 5.5 5.5 0 0 0 .84 0c.23 0 .35-.06.35-.33v-1.44h-2.2c-.76 0-1 0-1 0s-.07 0-.07-.07v-.35c0-.06 0-.07.07-.07s.29 0 1 0h2.19a4.62 4.62 0 0 0 0-.85l.41.08a6.81 6.81 0 0 0 1.05-.78h-2.2c-.76 0-1 0-1.06 0s-.06 0-.06-.07v-.3c0-.06 0-.07.06-.07s.3 0 1.06 0h2.26a.67.67 0 0 0 .21 0h.08s.1 0 .23.17a.49.49 0 0 1 .16.27.11.11 0 0 1 -.08.11.8.8 0 0 0 -.34.22 11 11 0 0 1 -1.25.86 2.11 2.11 0 0 0 0 .29v.1h2.15 1.06s.06 0 .06.07zm-.27-2.85v.91s0 .06-.07.06h-.35s-.06 0-.06-.06v-1.27h-5.57v1.27c0 .06 0 .06-.07.06h-.4s-.06 0-.06-.06 0-.17 0-.91v-.3c0-.29 0-.42 0-.47s0-.06.06-.06.33 0 1.12 0h3.36a6.38 6.38 0 0 0 .53-1 1.57 1.57 0 0 0 .1-.39 2.43 2.43 0 0 1 .48.17c.06 0 .09.07.09.11a.12.12 0 0 1 -.06.1.6.6 0 0 0 -.15.19 9.73 9.73 0 0 1 -.49.86h.34 1.12s.07 0 .07.06 0 .18 0 .42zm-5.45-2.17h.16a6.86 6.86 0 0 1 .6 1c0 .06 0 .06-.07.11l-.22.11h-.1s0 0 0-.05a5.14 5.14 0 0 0 -.59-1s0-.07.07-.11zm1.93-.13h.14a5.58 5.58 0 0 1 .5 1c0 .05 0 .05-.09.11l-.22.08c-.11 0-.13 0-.15 0a4.11 4.11 0 0 0 -.47-1c0-.06 0-.07.07-.11z"/><path d="m105.72 3.12c0 .11 0 .14-.09.14h-.13a7.89 7.89 0 0 1 -3.37-2.59 8.11 8.11 0 0 1 -3.28 2.6.31.31 0 0 1 -.12 0s-.06 0-.1-.13a1.08 1.08 0 0 0 -.21-.3 7.17 7.17 0 0 0 3.26-2.42 1.89 1.89 0 0 0 .22-.42c.18 0 .37.06.51.09s.1.05.1.1a.08.08 0 0 1 -.05.07h-.08a7.58 7.58 0 0 0 3.54 2.48 1.52 1.52 0 0 0 -.2.38zm-.22 1.34c0 .06 0 .07-.07.07s-.3 0-1.08 0h-4.45c-.77 0-1 0-1.08 0s-.07 0-.07-.07v-.35c0-.06 0-.07.07-.07s.31 0 1.08 0h2v-.89h-.5c-.72 0-1 0-1 0s-.07 0-.07-.08v-.31c0-.06 0-.07.07-.07s.27 0 1 0h.5v-.3a3.35 3.35 0 0 0 0-.7c.21 0 .34 0 .5.05s.09 0 .09.06a.27.27 0 0 1 0 .14 1.06 1.06 0 0 0 0 .41v.36h.59 1s.06 0 .06.07v.33c0 .07 0 .08-.06.08s-.28 0-1 0h-.59v.91h2 1.08s.07 0 .07.07zm-1.07 2v1.22s0 .07-.07.07h-.36c-.06 0-.06 0-.06-.07v-.31h-3.54v.34c0 .06 0 .07-.07.07h-.33c-.06 0-.06 0-.06-.07s0-.2 0-1.23v-.48c0-.5 0-.68 0-.73s0-.07.06-.07.32 0 1.11 0h2.21 1.11s.07 0 .07.07 0 .23 0 .63zm-.49-.81h-3.54v1.28h3.54z"/><path d="m123 4.65h.12a9.26 9.26 0 0 1 .67 1.57c0 .08 0 .09-.08.13l-.2.08c-.12 0-.13 0-.15 0l-.09-.29c-.74.23-1.62.45-2.34.62a.7.7 0 0 0 -.3.09s-.09.07-.13.07-.08-.05-.11-.12a3.19 3.19 0 0 1 -.12-.49 3.24 3.24 0 0 0 .46 0c.46-.66.89-1.35 1.26-2a14 14 0 0 0 -1.61-1.75c-.06 0-.06-.07 0-.15l.14-.21c.07-.09.08-.09.13-.05l.41.4a11.39 11.39 0 0 0 .79-1.47 2.45 2.45 0 0 0 .21-.65 3.87 3.87 0 0 1 .49.19c.07 0 .08.06.08.1a.13.13 0 0 1 -.06.11.53.53 0 0 0 -.13.19 16.88 16.88 0 0 1 -1 1.88c.3.3.58.62.85 1 .24-.42.43-.78.56-1.06a3.89 3.89 0 0 0 .31-.81c.18.07.33.15.47.22s.09.07.09.11 0 .08-.09.12a1.83 1.83 0 0 0 -.25.43c-.44.85-1.24 2.2-2 3.32.57-.11 1.19-.26 1.78-.43-.12-.28-.25-.56-.4-.86 0-.07 0-.09.07-.14zm3.2-2.48h.93s.08 0 .08.07v.74a29.58 29.58 0 0 1 -.21 3.75.87.87 0 0 1 -1 .85h-.54c-.16 0-.16 0-.19-.2a.9.9 0 0 0 -.12-.38 5.33 5.33 0 0 0 .82.07c.31 0 .45-.21.5-.59a32.49 32.49 0 0 0 .25-3.82h-1.21a10.72 10.72 0 0 1 -.32 2.3 4.9 4.9 0 0 1 -1.79 2.69.14.14 0 0 1 -.11.06s-.06 0-.13-.1a1 1 0 0 0 -.28-.23 4.55 4.55 0 0 0 1.87-2.65 11.54 11.54 0 0 0 .25-2.08c-.69 0-.89 0-.94 0s-.06 0-.06-.07v-.35c0-.06 0-.07.06-.07h1c0-.33 0-.67 0-1a7.14 7.14 0 0 0 0-1l.55.06c.06 0 .09 0 .09.08a.49.49 0 0 1 0 .18 3.84 3.84 0 0 0 0 .79v1z"/><path d="m132.17 4.24c0-.32 0-.8 0-1.22a10.11 10.11 0 0 1 -.7 1c0 .05-.06.07-.08.07s0 0-.09-.09a.89.89 0 0 0 -.21-.32 8.42 8.42 0 0 0 1.65-3 2.33 2.33 0 0 0 .12-.57 2.46 2.46 0 0 1 .5.18c.05 0 .09 0 .09.09a.14.14 0 0 1 -.07.12 1 1 0 0 0 -.17.32 12.78 12.78 0 0 1 -.58 1.39v4.17 1.32s0 .06-.07.06h-.39s-.05 0-.05-.06 0-.43 0-1.32zm4.05.33a5.34 5.34 0 0 0 2.38 2.05 1.38 1.38 0 0 0 -.22.35c0 .09 0 .11-.08.11a.24.24 0 0 1 -.12 0 5.52 5.52 0 0 1 -2.18-2.28v2.86c0 .06 0 .07-.06.07h-.37c-.06 0-.07 0-.07-.07 0-.34 0-1.54 0-2.84a5.09 5.09 0 0 1 -2.16 2.23.31.31 0 0 1 -.13 0s-.06 0-.11-.12a1.08 1.08 0 0 0 -.24-.28 5.15 5.15 0 0 0 2.35-2.13h-.89c-.82 0-1.1 0-1.15 0s-.06 0-.06-.07v-.28c0-.06 0-.07.06-.07s.33 0 1.15 0h1.16v-1h-.48c-.73 0-1 0-1 0s-.06 0-.06-.07 0-.23 0-.74v-.89c0-.51 0-.69 0-.73s0-.07.06-.07.29 0 1 0h1.58 1s.06 0 .06.07 0 .22 0 .73v.94.74s0 .07-.06.07-.29 0-1 0h-.58v1h1.24 1.14s.07 0 .07.07v.35c0 .06 0 .07-.07.07s-.31 0-1.14 0zm.95-3.5h-2.74v1.63h2.74z"/><path d="m143.81 6a1.33 1.33 0 0 0 .72.84 4.23 4.23 0 0 0 1.62.22c1 0 2.2-.06 3.4-.18a.73.73 0 0 0 -.15.36c0 .18 0 .18-.19.19-1.06.07-2.05.1-2.87.1a5 5 0 0 1 -2-.27 1.57 1.57 0 0 1 -.78-.84 7.29 7.29 0 0 1 -.84.82.74.74 0 0 0 -.18.17s-.06.09-.1.09-.06 0-.1-.09a2.45 2.45 0 0 1 -.22-.43 3.41 3.41 0 0 0 .49-.31 4.53 4.53 0 0 0 .72-.68v-2.11h-.57a5.12 5.12 0 0 0 -.55 0c-.06 0-.07 0-.07-.07v-.35c0-.06 0-.07.07-.07a5.12 5.12 0 0 0 .55 0h.42.57s.07 0 .07.07 0 .26 0 .8zm-1.08-5.53c.07-.06.09-.06.13 0a7.63 7.63 0 0 1 .92 1.19c0 .05 0 .07-.05.13l-.2.16c-.09.07-.12.06-.15 0a6.56 6.56 0 0 0 -.88-1.2c-.05-.05 0-.07 0-.14zm6.54 5.32c0 .06 0 .07-.07.07s-.31 0-1.14 0h-1.19v.88s0 .07-.07.07h-.35c-.06 0-.07 0-.07-.07s0-.26 0-.88h-1c-.82 0-1.09 0-1.14 0s-.07 0-.07-.07v-.33c0-.06 0-.07.07-.07s.32 0 1.14 0h1v-.65h-.65c-.76 0-1 0-1.07 0s-.07 0-.07-.07 0-.24 0-.77v-1c0-.53 0-.72 0-.76s0-.08.07-.08.31 0 1.07 0h.65v-.62h-2.13s-.06 0-.06-.07v-.32c0-.06 0-.07.06-.07s.32 0 1.14 0h1a4.92 4.92 0 0 0 -.06-.84 4.06 4.06 0 0 1 .51 0s.09 0 .09.08a.63.63 0 0 1 0 .14 2.18 2.18 0 0 0 0 .56v.08h1.07 1.13s.07 0 .07.07v.33c0 .06 0 .07-.07.07h-2.29v.64h.72 1.07s.06 0 .06.08 0 .23 0 .76v1 .77s0 .07-.06.07-.31 0-1.07 0h-.72v.67h1.19 1.14s.07 0 .07.07zm-2.85-3.32h-1.33v.71h1.33zm0 1.1h-1.33v.78h1.33zm1.84-1.1h-1.39v.71h1.39zm0 1.1h-1.39v.78h1.39z"/><path d="m160.23 4.29s0 .06-.06.06h-4.17c-.06 0-.07 0-.07-.06s0-.3 0-.9v-1.39a5.57 5.57 0 0 1 -.44.51.16.16 0 0 1 -.1.07s0 0-.08-.07l-.16-.18h-.68v1.72c.26-.12.54-.24.82-.39v.34s0 .17-.12.23-.46.23-.69.33v1 1.28s-.06.55-.21.68-.31.16-.8.15c-.16 0-.17 0-.2-.16a1.3 1.3 0 0 0 -.14-.37h.59c.2 0 .28-.08.28-.36v-2l-.41.16a.85.85 0 0 0 -.29.16.16.16 0 0 1 -.11 0s-.06 0-.08-.07a3.61 3.61 0 0 1 -.15-.49 5.39 5.39 0 0 0 .71-.2l.33-.12v-1.89h-.95c-.05 0-.05 0-.05-.06v-.35c0-.06 0-.07.05-.07s.2 0 .7 0h.25v-.7a5.53 5.53 0 0 0 -.06-1 3.56 3.56 0 0 1 .52.06c.06 0 .1 0 .1.06a.38.38 0 0 1 0 .16 2.41 2.41 0 0 0 -.05.74v.71h.62s.06 0 .06.07v.3a4.06 4.06 0 0 0 1-1.39 2 2 0 0 0 .19-.6 1.67 1.67 0 0 1 .43.14q.09 0 .09.09s0 .07-.08.1a1.46 1.46 0 0 0 -.2.36c0 .07-.07.14-.11.22h1.28a4 4 0 0 0 .24-.55 1.45 1.45 0 0 0 .07-.34l.43.12c.06 0 .09 0 .09.08a.12.12 0 0 1 -.06.1.39.39 0 0 0 -.11.17c-.07.15-.14.28-.22.42h.8 1s.07 0 .07.07v.27c0 .06 0 .07-.07.07s-.27 0-1 0h-.8v.55h.44 1.11s.07 0 .07.07v.26c0 .06 0 .07-.07.07s-.31 0-1.11 0h-.44v.47h.43 1.1s.06 0 .06.07v.25c0 .06 0 .08-.06.08s-.31 0-1.1 0h-.43v.6h.84 1.08s.06 0 .06.07zm-.79 1.44h.55s.07 0 .06.07c0 .24-.06.45-.09.64a7 7 0 0 1 -.16.72.74.74 0 0 1 -.81.56 6.38 6.38 0 0 1 -.69 0c-.13 0-.14 0-.16-.18a.81.81 0 0 0 -.1-.35 6.5 6.5 0 0 0 .9.1.43.43 0 0 0 .45-.34 7.74 7.74 0 0 0 .13-.77h-1.06l-.08.21c0 .08-.06.08-.17 0h-.18c-.12 0-.13-.06-.1-.12a4.6 4.6 0 0 0 .35-.94h-1.17a2.74 2.74 0 0 1 -1.81 2.43h-.11c-.05 0-.08 0-.13-.13a1 1 0 0 0 -.25-.25 2.35 2.35 0 0 0 1.82-2.09h-.33c-.69 0-.9 0-.94 0s-.07 0-.07-.07v-.3c0-.06 0-.07.07-.07h2.9.22.07c.06 0 .1 0 .19.09s.16.14.16.19 0 .07-.08.11-.06.07-.1.18l-.12.34zm-1.63-4.22h-1.4v.55h1.4zm0 .91h-1.4v.58h1.4zm0 .93h-1.4v.65h1.4z"/><path d="m171.08 7.36c0 .06 0 .07-.06.07s-.29 0-1.05 0h-4.85c-.76 0-1 0-1.05 0s-.07 0-.07-.07v-.36c0-.06 0-.07.07-.07s.29 0 1.05 0h2.13v-1.1h-1.08c-.82 0-1.09 0-1.14 0s-.07 0-.07-.07v-.32c0-.06 0-.07.07-.07s.32 0 1.14 0h1.08v-.15a4.37 4.37 0 0 0 -.06-.84h.54a.11.11 0 0 1 .09.09.25.25 0 0 1 0 .14 2.17 2.17 0 0 0 0 .56v.17h1.18 1.14s.07 0 .07.07v.34c0 .06 0 .07-.07.07s-.32 0-1.14 0h-1.27v1.18h2.27 1.05s.06 0 .06.07zm-2.92-4.74c0 .06 0 .06-.06.06h-1v.87 1s0 .06-.07.06h-.36c-.05 0-.06 0-.06-.06s0-.33 0-1v-.87h-1a5.18 5.18 0 0 1 -.17.79 2.81 2.81 0 0 1 -.94 1.32c-.05 0-.08.07-.1.07s-.06 0-.12-.1a.8.8 0 0 0 -.28-.22 2.39 2.39 0 0 0 1-1.24 3 3 0 0 0 .14-.62h-1.06c-.06 0-.07 0-.07-.06v-.33c0-.06 0-.06.07-.06h1.11c0-.25 0-.54 0-.86v-.44c-.64 0-.87 0-.9 0s-.07 0-.07-.07v-.3c0-.06 0-.07.07-.07s.27 0 1 0h1.54 1s.06 0 .06.07v.32c0 .06 0 .07-.06.07h-.8v1.29h1c.06 0 .06 0 .06.06zm-1.52-1.69h-.93v.49a7.13 7.13 0 0 1 0 .82h1zm1.9.41a3.84 3.84 0 0 0 0-.77h.5s.09 0 .09.08a.21.21 0 0 1 0 .12 1.49 1.49 0 0 0 0 .53v1.1.81s0 .08-.06.08h-.36c-.05 0-.06 0-.06-.08s0-.26 0-.81zm1.63-.15a4.83 4.83 0 0 0 -.06-1h.51c.07 0 .1 0 .1.08a.48.48 0 0 1 -.05.17 2.68 2.68 0 0 0 0 .68v1.9.91a.54.54 0 0 1 -.2.5c-.13.1-.34.15-.94.15-.16 0-.16 0-.2-.17a1.86 1.86 0 0 0 -.14-.37 4.26 4.26 0 0 0 .63 0c.29 0 .38-.08.38-.32z"/><path d="m177.61 2.06c0 .06 0 .06-.07.06h-2.62s0 0 0-.06v-.36c0-.06 0-.07 0-.07s.24 0 .85 0h.93.84s.07 0 .07.07zm-.24-1.16c0 .06 0 .07-.07.07s-.18 0-.7 0h-.6c-.51 0-.66 0-.71 0s-.06 0-.06-.07v-.34c0-.06 0-.07.06-.07s.2 0 .71 0h.63.7s.07 0 .07.07zm-.05 5.38v1.2s0 .07-.06.07h-.26c-.06 0-.07 0-.07-.07v-.27h-1.2v.44c0 .06 0 .07-.07.07h-.32c-.07 0-.07 0-.07-.07s0-.2 0-1.24v-.51c0-.51 0-.7 0-.75s0-.06.07-.06h2c.06 0 .06 0 .06.06s0 .23 0 .61zm-.08-3.1c0 .06 0 .07-.07.07h-1.82s-.06 0-.06-.07v-.33c0-.06 0-.06.06-.06h1.82c.06 0 .07 0 .07.06zm0 1.14c0 .06 0 .07-.07.07s-.18 0-.65 0h-.52c-.48 0-.62 0-.66 0s-.06 0-.06-.07v-.32c0-.06 0-.07.06-.07s.18 0 .66 0h.51.65s.07 0 .07.07zm-.36 1.2h-1.2v1.27h1.2zm3.77-5h1s.08 0 .08.08a5.09 5.09 0 0 0 0 .54 10.08 10.08 0 0 1 -.25 2.33.7.7 0 0 1 -.73.47 4.44 4.44 0 0 1 -.54 0c-.12 0-.13 0-.15-.19a1.42 1.42 0 0 0 -.11-.35 3.4 3.4 0 0 0 .69.08.4.4 0 0 0 .4-.23 9.72 9.72 0 0 0 .21-2.25h-1.43a4.86 4.86 0 0 1 -.24 1.25c.26.13.51.27.74.41.06 0 0 0 0 .12l-.1.23c-.05.11-.07.11-.13.07s-.44-.26-.68-.4a3.45 3.45 0 0 1 -1.47 1.56h-.13s-.06 0-.11-.11a.85.85 0 0 0 -.25-.25 3 3 0 0 0 1.55-1.44 9.85 9.85 0 0 0 -.95-.4c-.06 0-.05 0 0-.12l.1-.22c0-.07.06-.08.11-.05.29.1.6.22.91.36a4.18 4.18 0 0 0 .18-1h-.35c-.73 0-1 0-1 0s-.07 0-.07-.07v-.37c0-.06 0-.07.07-.07s.28 0 1 0zm-2.34 4.7c.08 0 .09 0 .08.09a5.62 5.62 0 0 1 -.45 1.6s0 0-.14 0l-.19-.1c-.11-.06-.11-.08-.08-.13a4.61 4.61 0 0 0 .43-1.5c0-.07 0-.08.13 0zm1 1.52c0 .22 0 .28.16.34a1.27 1.27 0 0 0 .45 0 1 1 0 0 0 .57-.09c.17-.13.21-.43.21-.89a1 1 0 0 0 .3.17c.14 0 .14.07.13.21-.06.52-.13.77-.39.92a1.5 1.5 0 0 1 -.84.14 2 2 0 0 1 -.74-.09c-.16-.07-.29-.19-.29-.56v-1.43c0-.22 0-.44 0-.65a3.1 3.1 0 0 1 .45.05c.07 0 .1 0 .1.07a.26.26 0 0 1 0 .1 1.23 1.23 0 0 0 0 .4zm.1-2.75c.07-.07.07-.07.13 0a5.88 5.88 0 0 1 1 .83s0 .07 0 .15l-.15.16c-.08.09-.1.11-.14.06a4.24 4.24 0 0 0 -1-.9c-.05 0-.05 0 0-.12zm1.92 1.07h.13a6.19 6.19 0 0 1 .75 1.41c0 .06 0 .06-.09.12l-.2.1c-.1.06-.11.06-.13 0a5.77 5.77 0 0 0 -.79-1.44s0 0 .08-.1z"/><path d="m189.61 6.83a11.25 11.25 0 0 0 1.82.11h1.35a1.82 1.82 0 0 0 -.12.35c0 .17 0 .18-.19.19h-.76c-3.19 0-3.71-.55-4.24-1.64a4.4 4.4 0 0 1 -1.19 1.71c-.06 0-.09.08-.12.08s0 0-.11-.1a.83.83 0 0 0 -.27-.23 4.1 4.1 0 0 0 1.56-3 2.57 2.57 0 0 0 0-.47 4 4 0 0 1 .47.09c.1 0 .12.05.12.1a.25.25 0 0 1 -.06.13.61.61 0 0 0 -.08.21 8.4 8.4 0 0 1 -.17.87 2.06 2.06 0 0 0 1.48 1.46v-3.58h-2c-.06 0-.07 0-.07-.06v-.35c0-.06 0-.07.07-.07s.3 0 1.11 0h2.25 1.1s.07 0 .07.07v.36c0 .06 0 .06-.07.06h-2v1.42h1.2.79s.07 0 .07.07v.35c0 .06 0 .07-.07.07s-.21 0-.79 0h-1.2zm3-5v.88s0 .07-.06.07h-.38c-.05 0-.06 0-.06-.07v-1.16h-5.51v1.17c0 .06 0 .07-.07.07h-.37c-.06 0-.06 0-.06-.07s0-.16 0-.88v-.26c0-.28 0-.4 0-.45s0-.06.06-.06.32 0 1.12 0h1.72v-.07a4.66 4.66 0 0 0 0-.87h.52c.07 0 .1 0 .1.07a.49.49 0 0 1 -.05.16 2.27 2.27 0 0 0 0 .6v.12h1.91 1.13s.06 0 .06.06 0 .17 0 .39z"/><path d="m198.43 4.55s.06.06 0 .11a1.47 1.47 0 0 0 -.21.67c0 .69.74 1 2.07 1a9.84 9.84 0 0 0 2.32-.24c.07 0 .09 0 .11.06a3.71 3.71 0 0 1 .07.44c0 .06 0 .09-.1.11a11.57 11.57 0 0 1 -2.45.22c-1.57 0-2.52-.5-2.52-1.6a1.84 1.84 0 0 1 .33-1zm1.89-3.17c.58 0 1.23 0 1.79-.08a.08.08 0 0 1 .11.08 2 2 0 0 1 0 .38c0 .09 0 .12-.12.13a5.23 5.23 0 0 0 -2.09 1 .18.18 0 0 1 -.23 0 .74.74 0 0 0 -.33-.17 10.88 10.88 0 0 1 1.39-.85 8.71 8.71 0 0 1 -.87 0 8 8 0 0 1 -1.64-.16c-.05 0-.08 0-.08-.12s0-.28 0-.43a9 9 0 0 0 2.07.22z"/><path d="m210.35.74a.14.14 0 0 1 .1.11v.3a5.09 5.09 0 0 0 0 .54 12.51 12.51 0 0 0 .32 1.72c.48-.25 1-.49 1.44-.77a1.38 1.38 0 0 0 .47-.39 3.5 3.5 0 0 1 .41.48c.06.1 0 .22-.1.23a3.25 3.25 0 0 0 -.71.28c-.59.28-1.28.63-1.83 1-.82.51-1.2 1-1.2 1.54 0 .76.68.94 1.9.94a15.66 15.66 0 0 0 2.08-.18c.07 0 .09 0 .11.07s0 .3 0 .45 0 .11-.11.12a18.88 18.88 0 0 1 -2.16.11c-1.39 0-2.4-.32-2.4-1.48 0-.82.55-1.45 1.57-2.1a15.29 15.29 0 0 1 -.43-2.18 3.31 3.31 0 0 0 -.17-.83 3.84 3.84 0 0 1 .71.04zm2.7 0a.08.08 0 0 1 .09 0 4.13 4.13 0 0 1 .91 1 .06.06 0 0 1 0 .09l-.24.21a.06.06 0 0 1 -.1 0 3.69 3.69 0 0 0 -.95-1.04zm.68-.55a.07.07 0 0 1 .09 0 5.16 5.16 0 0 1 .92 1s0 .06 0 .1l-.21.2s-.07 0-.1 0a4.12 4.12 0 0 0 -.93-1.06z"/><path d="m221.16 5.72c0 .86.44 1.16 1.25 1.16s1.59-.42 1.59-1.31a2.1 2.1 0 0 0 -.74-1.52 2.07 2.07 0 0 0 .5 0 .15.15 0 0 1 .13 0 2.15 2.15 0 0 1 .68 1.54 1.89 1.89 0 0 1 -2.1 1.84c-1.26 0-1.85-.57-1.85-1.69 0-.31 0-.7.08-1.06a7.37 7.37 0 0 1 -1.28-.26s-.07 0-.08-.11 0-.32 0-.48a5.38 5.38 0 0 0 1.44.32c.07-.52.13-1 .18-1.46a5.94 5.94 0 0 1 -1.37-.27c-.06 0-.07 0-.08-.11s0-.3 0-.47a6.61 6.61 0 0 0 1.55.33c.07-.46.09-.67.12-1a2.9 2.9 0 0 0 0-.72 2.6 2.6 0 0 1 .63.2.18.18 0 0 1 .12.14.24.24 0 0 1 0 .12.7.7 0 0 0 -.15.4c-.06.33-.1.57-.15.93a6.22 6.22 0 0 0 1.14 0s0 0 0 .07v.39c0 .07 0 .09-.08.09a11.6 11.6 0 0 1 -1.18 0c-.07.42-.14.94-.21 1.46a11.17 11.17 0 0 0 1.3 0c.08 0 .1 0 .1.06s0 .27 0 .37 0 .1-.08.1c-.42 0-.93 0-1.38 0-.03.22-.08.67-.08.94z"/><path d="m236.15 4.53v3.17s0 .07-.08.07h-.36c-.06 0-.06 0-.06-.07v-.45h-5.45v.45c0 .06 0 .07-.07.07h-.37c-.06 0-.06 0-.06-.07s0-.54 0-3.17v-1.7c0-1.72 0-2.23 0-2.27s0-.07.06-.07.32 0 1.12 0h4.12 1.11s.08 0 .08.07 0 .55 0 2zm-.48-3.53h-5.45v5.79h5.45zm-2.41 3.84a4.54 4.54 0 0 0 .75.65 3.94 3.94 0 0 0 .64-.47 1 1 0 0 0 .26-.3 2.6 2.6 0 0 1 .31.25.15.15 0 0 1 0 .09s0 .06-.09.07l-.18.12a6.74 6.74 0 0 1 -.64.45 4.88 4.88 0 0 0 1.07.43 1.41 1.41 0 0 0 -.18.27c0 .09-.05.14-.1.14h-.12a4.35 4.35 0 0 1 -1.98-1.54v1.52s0 .07-.06.07h-.34s-.06 0-.06-.07 0-.78 0-1.45a5.33 5.33 0 0 1 -1.78 1.29h-.11s-.07 0-.11-.12a.78.78 0 0 0 -.2-.24 5.4 5.4 0 0 0 2-1.24h-1.17s-.06 0-.06-.06 0-.13 0-.45v-.25c0-.33 0-.41 0-.46s0-.07.06-.07.28 0 1 0h1.34 1s.06 0 .06.07 0 .13 0 .46v.31.45s0 .06-.06.06h-1.31zm2.11-1.84c0 .07 0 .08-.07.08s-.31 0-1.11 0h-2.49c-.81 0-1.08 0-1.13 0s-.06 0-.06-.08v-.28c0-.06 0-.07.06-.07s.32 0 1.13 0h1v-.52h-.52c-.74 0-1 0-1 0s-.07 0-.07-.06v-.26c0-.06 0-.07.07-.07s.28 0 1 0h.52a4.28 4.28 0 0 0 0-.6l.47.05s.1.05.1.07a.33.33 0 0 1 -.05.15.76.76 0 0 0 0 .33h.67 1s.07 0 .07.07v.28c0 .05 0 .06-.07.06s-.28 0-1 0h-.67v.54h1.1 1.11s.07 0 .07.07zm-1.18.86h-2.52v.59h2.52z"/></g></svg>